<?xml version="1.0" encoding="utf-8"?>
<!-- Generator: Adobe Illustrator 26.3.1, SVG Export Plug-In . SVG Version: 6.00 Build 0)  -->
<svg version="1.1" id="Layer_1" xmlns="http://www.w3.org/2000/svg" xmlns:xlink="http://www.w3.org/1999/xlink" x="0px" y="0px"
	 viewBox="0 0 1920 1080" style="enable-background:new 0 0 1920 1080;" xml:space="preserve">
<style type="text/css">
	.st0{fill:none;}
	.st1{fill:#FF7BAC;}
	.st2{fill:#D3D66B;}
	.st3{fill:url(#SVGID_1_);}
</style>
<pattern  width="157.66" height="158.91" patternUnits="userSpaceOnUse" id="New_Pattern_3" viewBox="0 -158.91 157.66 158.91" style="overflow:visible;">
	<g>
		<rect y="-158.91" class="st0" width="157.66" height="158.91"/>
		<path class="st0" d="M133.74-158.91h23.93V0H0v-158.91h45.01c-0.76,0.5-1.01,1.56-1.03,2.48c-0.04,1.45,0.83,2.48,2.49,2.4
			c1.52-0.08,1.82-1.15,1.83-1.52c0.04-1.76-0.32-2.87-1.11-3.35h84.66c-0.82,0.45-1.29,1.4-1.07,2.53
			c0.21,1.11,0.73,2.22,2.26,2.28c1.27-0.34,1.83-1.31,1.68-2.56C134.61-157.47,134.35-158.44,133.74-158.91z M44.41-98.02
			c0.07,1.06,0.47,1.99,1.72,1.85c1.59-0.17,2.07-1.34,2.11-2.98c-0.17-0.88-0.69-1.61-1.88-1.58
			C44.56-100.68,44.32-99.43,44.41-98.02z M46.35-111.02c1.29-0.08,1.88-0.74,1.87-1.91c0-1.38-0.83-2.17-2.11-2.27
			c-1.27-0.09-1.62,0.95-1.68,1.98C44.37-111.88,44.97-111.02,46.35-111.02z M48.23-127.57c0.02-1.18-0.39-2.04-1.57-2.15
			c-1.71-0.16-2.29,0.88-2.27,2.41c0.01,1.03,0.25,2.11,1.45,2.16C47.42-125.08,48.08-126.19,48.23-127.57z M43.6-142.35
			c-0.04,1.47,0.84,2.5,2.26,2.82c1.21,0.28,2.48-1.19,2.34-2.53c-0.15-1.51-1.23-1.76-2.67-1.81
			C44.74-143.76,43.64-143.62,43.6-142.35z M36.55-149.39c0,1.49,0.96,2.41,2.54,2.29c1.32-0.1,1.95-1.01,2.11-2.28
			c-0.16-1.26-0.79-2.18-2.11-2.28C37.51-151.79,36.54-150.88,36.55-149.39z M29.46-156.54c0.14,1.49,0.95,2.53,2.57,2.43
			c1.37-0.08,2.01-1.01,2.16-2.44c-0.28-1.4-1.18-2.21-2.73-2.22C29.98-158.78,29.33-157.9,29.46-156.54z M29.47-127.53
			c0.13,1.49,0.95,2.44,2.83,2.45c0.98-0.31,1.92-1,1.85-2.36c-0.09-1.58-1.15-2.31-2.68-2.33
			C29.98-129.78,29.34-128.89,29.47-127.53z M31.39-140.01c1.25,0.03,2.23-0.4,2.57-1.79c-0.11-1.4-1.1-1.89-2.32-1.99
			c-1.08-0.09-1.98,0.35-2.13,1.52C29.33-140.92,29.93-140.04,31.39-140.01z M31.76-100.78c-1.43-0.03-2.31,0.52-2.29,2.01
			c0.02,1.53,0.75,2.61,2.33,2.68c1.31,0.05,2.23-0.74,2.32-2.1C34.23-99.83,33.17-100.54,31.76-100.78z M31.74-71.77
			c-1.35-0.12-2.27,0.46-2.27,1.96c0,1.53,0.72,2.61,2.3,2.71c1.32,0.08,2.14-0.73,2.42-2.25C34.09-70.73,33.26-71.63,31.74-71.77z
			 M31.02-110.37c1.74,0.28,2.11-1.14,2.3-2.49c-0.01-1.2,0.08-2.6-1.44-2.74c-1.6-0.15-2.32,1.02-2.42,2.5
			C29.36-111.86,29.71-110.58,31.02-110.37z M29.47-83.46c0.12,1.22,0.7,2.16,2.16,2.2c1.4-0.61,2.64-1.54,2.46-3.2
			c-0.16-1.5-1.5-2.18-2.87-2C29.6-86.23,29.33-84.83,29.47-83.46z M31.51-52.58c1.72,0.13,1.99-1.5,2.37-2.68
			c0.45-1.41-0.47-2.1-1.71-2.43c-1.61-0.05-2.48,0.81-2.69,2.29C29.26-53.86,29.96-52.7,31.51-52.58z M29.55-26.49
			c-0.04,1.47,0.82,2.46,2.32,3.03c1.35-0.54,1.9-1.8,2.08-3.08c0.2-1.42-0.83-2.15-2.14-2.14C30.47-28.67,29.59-27.83,29.55-26.49z
			 M31.55-38.16c1.89,0.16,1.75-1.56,2.17-2.74c-0.02-1.56-1.07-1.88-2.32-1.88c-1.14,0-1.86,0.59-1.92,1.78
			C29.41-39.52,29.96-38.3,31.55-38.16z M22.47-148.38c0.11,1.04,0.58,2.05,1.86,1.79c1.31-0.27,2.55-0.83,2.7-2.71
			c-0.65-0.96-1.24-2.36-2.81-2.15C22.54-151.22,22.31-149.78,22.47-148.38z M21.79-134.8c0.04,1.4,1.12,2.49,2.57,2.49
			c1.45,0,2.26-1.13,2.63-2.49c-0.19-1.44-1.18-1.94-2.41-1.99C23.18-136.84,21.74-136.5,21.79-134.8z M14.56-156.39
			c0,1.55,1.08,2.34,2.59,2.38c1.76,0.04,2.18-1.13,2.12-3.05c-0.08-0.89-0.68-1.75-2.11-1.7
			C15.64-158.71,14.57-157.94,14.56-156.39z M19.26-84.11c-0.1-1.42-0.78-2.54-2.39-2.51c-1.26,0.02-1.51,1.15-1.49,2.18
			c0.02,1.31-0.04,2.91,1.88,2.82C18.56-81.67,19.27-82.65,19.26-84.11z M17.04-71.62c-1.62,0.01-1.66,1.29-1.64,2.47
			c0.02,1.06,0.33,1.95,1.7,2.03c1.28-0.15,2.05-0.98,2.05-2.26C19.16-70.67,18.41-71.63,17.04-71.62z M15.41-98.02
			c0.07,1.06,0.47,1.99,1.72,1.85c1.58-0.18,2.09-1.33,2.1-2.66c-0.11-1.27-0.71-1.94-1.88-1.91
			C15.56-100.69,15.33-99.43,15.41-98.02z M17.12-110.57c1.28-0.09,2.08-0.88,2.12-2.34c-0.05-1.08-0.58-1.78-1.79-1.83
			c-1.5-0.06-2.07,0.85-2,2.18C15.51-111.55,15.85-110.49,17.12-110.57z M0.56-98.22c0.07,1.32,0.94,2,2.27,2.15
			c1.7-0.43,2.26-1.79,2.25-3.3c-0.01-1.22-1.11-1.52-2.15-1.4C1.48-100.59,0.47-99.81,0.56-98.22z M2.51-110.25
			c1.12-0.32,2.07-1.01,2.37-2.18c0.37-1.47-0.68-2.09-1.92-2.31c-1.04-0.19-2.15-0.01-2.31,1.22
			C0.47-112.15,0.98-110.94,2.51-110.25z M3.08-86.39c-1.18-0.06-2.34,0.55-2.5,1.92c-0.15,1.35,0.67,2.12,1.9,2.33
			c1.42,0,1.77-0.88,1.8-1.96C4.33-85.08,4.41-86.32,3.08-86.39z M0.47-69.8c0,1.54,0.76,2.48,2.29,2.74
			c1.33-0.12,2.25-0.77,2.36-2.12c0.13-1.64-0.91-2.44-2.39-2.59C1.37-71.9,0.46-71.29,0.47-69.8z M5.16-127.62
			c-0.23-1.29-1.04-2.1-2.31-2.06c-1.51,0.04-2.39,0.98-2.27,2.54c0.1,1.31,1,2.1,2.27,2.06C4.35-125.13,5.16-126.07,5.16-127.62z
			 M0.6-141.89c0.21,1.11,0.51,2.37,1.93,2.54c1.14,0.14,2.83-1.96,2.57-3.14c-0.27-1.23-1.29-1.34-2.32-1.37
			C1.23-143.83,0.37-143.13,0.6-141.89z M0.47-156.51c0.14,1.49,0.95,2.44,2.6,2.43c1.32-0.23,2.14-1.04,2.07-2.36
			c-0.08-1.57-1.15-2.31-2.69-2.32C0.96-158.77,0.34-157.87,0.47-156.51z M0.4-55.19c0.03,1.3,0.6,2.18,2.02,2.18
			c1.46,0,2.66-0.65,2.67-2.19c0.01-1.87-1.62-2.14-2.95-2.47C0.49-57.5,0.37-56.37,0.4-55.19z M0.46-40.83
			c0,1.24,0.4,2.43,1.79,2.5c1.5,0.08,2.49-1.02,2.67-2.38c0.19-1.42-1.01-1.88-2.17-2.09C1.35-42.82,0.46-42.3,0.46-40.83z
			 M0.54-26.29c0.05,1.31,0.87,2.22,2.18,2.18c1.62-0.05,2.01-1.39,2.31-2.92c-0.43-1.01-1.12-1.84-2.49-1.62
			C1.23-28.46,0.5-27.59,0.54-26.29z M5.16-11.19c-0.02-1.58-0.92-2.39-2.38-2.58c-1.04-0.13-2.14,0.18-2.16,1.38
			c-0.03,1.51,0.5,3.04,2.26,3.26C4.15-8.98,4.94-9.91,5.16-11.19z M7.46-62.53c0.15,1.49,0.95,2.52,2.58,2.42
			c1.36-0.09,2.01-1.01,2.14-2.34c-0.24-1.54-1.18-2.32-2.72-2.33C7.98-64.78,7.33-63.89,7.46-62.53z M9.41-75.02
			c1.49,0.01,2.46-0.66,2.7-2.23c-0.15-1.19-0.97-1.56-2.03-1.59c-1.44-0.04-2.63,0.32-2.58,2.09C7.55-75.57,8.3-75.02,9.41-75.02z
			 M9.33-31.95c1.58,0.03,2.63-0.2,2.74-1.41c0.12-1.31-0.68-2.19-2.01-2.31c-1.32-0.12-2.26,0.55-2.42,1.87
			C7.44-32.17,8.66-32,9.33-31.95z M10.89-20.7c-1.3-0.25-2.26,0.16-2.4,1.63c-0.08,0.86,0.16,1.68,1.11,1.88
			c1.36,0.29,2.1-0.49,2.48-1.72C12.18-19.84,11.83-20.52,10.89-20.7z M12.11-4.88c0.07-1.27-0.56-1.87-1.75-1.87
			c-1.17,0-1.85,0.62-1.89,1.79c-0.05,1.24,0.29,2.5,1.7,2.53C11.6-2.39,11.74-3.84,12.11-4.88z M12.19-47.38
			c-0.16-1.29-0.78-2.22-2.16-2.26c-1.3-0.04-1.65,0.93-1.58,2c0.08,1.24,0.55,2.36,2.01,2.32C11.63-45.36,12.06-46.3,12.19-47.38z
			 M12.74-91.75c-0.73-0.98-1.53-2.09-3.04-1.93c-1.52,0.16-2.37,1.15-2.1,2.72c0.22,1.3,1.16,2.03,2.47,1.86
			C11.46-89.28,12.46-90.06,12.74-91.75z M7.61-119.65c-0.16,0.98,0.54,1.5,1.44,1.64c1.62,0.25,3.13-0.87,3.13-2.36
			c0-1.08-0.54-1.87-1.8-2.16C8.86-122.24,7.87-121.26,7.61-119.65z M9.79-132.12c1.33-0.05,2.19-0.72,2.34-2.04
			c0.15-1.33-0.54-2.23-1.86-2.45c-1.25-0.21-1.77,0.62-1.86,1.72C8.32-133.72,8.32-132.54,9.79-132.12z M10.21-107.82
			c-1.17-0.06-2.49-0.03-2.59,1.48c-0.09,1.31,0.42,2.54,1.85,3.05c1.44-0.21,2.57-0.79,2.73-2.33
			C12.35-107,11.59-107.75,10.21-107.82z M12.75-149.31c-0.1-1.23-1.91-2.58-3.23-2.35c-1.29,0.22-1.99,1.07-1.99,2.36
			c-0.01,1.43,1.57,2.56,3.12,2.32C11.97-147.19,12.55-148.08,12.75-149.31z M17.27-139.26c1.33-0.1,1.88-1.05,1.98-2.27
			c0.15-1.82-1.03-2.68-2.59-2.95c-1.11-0.19-1.83,0.57-2.06,1.63C14.27-141.46,15.79-139.41,17.27-139.26z M14.55-127.4
			c-0.04,1.31,0.78,2.23,2.13,2.3c1.62,0.08,2.34-0.96,2.57-2.39c0.02-1.44-0.58-2.3-2.05-2.27
			C15.67-129.74,14.6-128.98,14.55-127.4z M19.2-12.11c-0.08-1.17-0.87-1.67-2.01-1.64c-1.49,0.16-1.87,1.13-1.71,2.42
			c0.13,1.03,0.62,2.02,1.76,1.99C18.96-9.38,19.3-10.7,19.2-12.11z M19.3-26.36c0-1.01-0.14-2.15-1.36-2.25
			c-1.68-0.13-2.85,0.96-3.15,2.48c-0.27,1.38,0.92,1.91,2.04,2.12C18.59-23.9,19.29-24.8,19.3-26.36z M17.21-39.05
			c1.19,0.06,1.88-0.5,2.01-2.12c-0.15-0.66-0.48-1.56-1.76-1.58c-1.16-0.02-1.91,0.51-1.97,1.73C15.44-39.84,16-39.11,17.21-39.05z
			 M17.6-57.49c-1.33-0.1-2.88,0.36-2.79,1.99c0.08,1.4,0.76,2.87,2.51,3.25c1.79-0.34,2.35-1.82,2.56-3.22
			C20.11-56.91,18.71-57.41,17.6-57.49z M24.69-103.29c0.97-0.24,1.79-0.89,1.98-1.93c0.21-1.15-1.59-2.58-3.11-2.49
			c-0.95,0.2-1.78,0.66-1.81,1.83C21.7-104.59,23.48-102.99,24.69-103.29z M24.04-74.11c1.61-0.21,2.53-1.91,2.23-3.85
			c-0.17-1.1-0.73-1.92-1.91-1.63c-1.51,0.36-2.76,1.33-2.61,3.01C21.87-75.32,22.5-74.06,24.04-74.11z M21.77-62.88
			c0.16,1.68,1.38,2.66,3,2.78c1.15,0.08,1.68-0.88,1.93-1.93c0.07-1.34-1.48-2.8-2.99-2.68C22.64-64.63,21.66-64.04,21.77-62.88z
			 M26.18-4.76c0.06-1.19-0.5-1.88-2.11-2.01c-0.67,0.15-1.55,0.49-1.58,1.77C22.47-3.84,23-3.1,24.22-3.04
			C25.39-2.99,26.12-3.55,26.18-4.76z M26.92-18.94c-0.05-1.6-1.55-1.96-3.03-2.44c-0.95,0.44-2.13,0.92-1.89,2.36
			c0.22,1.31,0.78,2.79,2.42,2.7C25.85-16.39,26.96-17.47,26.92-18.94z M22.49-33.4c0.14,1.23,0.77,2.22,2.13,2.24
			c1.61,0.03,1.63-1.25,1.7-2.53c-0.11-1.15-0.58-2.09-2.05-2.04C22.76-35.68,22.34-34.67,22.49-33.4z M27.14-48.27
			c-0.33-1.58-1.49-1.61-2.66-1.55c-1.38,0.06-2.11,0.84-2.01,2.2c0.08,1.21,0.56,2.44,1.97,2.29
			C26.06-45.5,26.89-46.73,27.14-48.27z M27.16-91.5c-0.26-1.55-1.24-2.26-2.75-2.28c-1.65-0.02-2.49,1.01-2.43,2.49
			c0.06,1.5,1.03,2.42,2.64,2.3C26.13-89.11,27.05-89.91,27.16-91.5z M27.17-120.31c-0.12-1.32-0.75-2.18-2.1-2.36
			c-1.74-0.23-3.67,1.22-3.48,2.61c0.19,1.35,1.16,1.96,2.4,2.06C25.67-117.86,26.88-118.51,27.17-120.31z M34.22-11.48
			c0.04-1.5-0.63-2.24-2.01-2.34c-1.78-0.13-2.84,0.56-2.81,2.46c0.02,1.26,0.42,2.28,1.9,2.33C33.06-8.96,34-9.89,34.22-11.48z
			 M40.24-5.65c0.02-0.26-0.49-0.95-1.38-0.99c-1.28-0.05-2.18,0.67-2.25,2.02c-0.06,1.25,0.81,1.65,1.91,1.59
			C39.7-3.1,40.22-3.82,40.24-5.65z M41.11-19c-0.01-1.35-0.76-1.81-1.92-1.76c-1.21,0.05-1.77,0.81-1.75,1.94
			c0.02,1.23,0.38,2.51,1.85,2.38C40.65-16.55,40.84-17.94,41.11-19z M41.11-34.12c0.01-0.98-0.56-1.49-1.44-1.64
			c-1.57-0.27-3.14,0.85-3.13,2.29c0.01,1.29,0.71,2.11,1.91,2.35C39.8-31.01,41.1-32.54,41.11-34.12z M37.46-76.4
			c0.12,1.03,0.58,2.15,1.75,1.98c1.57-0.24,1.9-1.71,1.85-3.04c-0.03-0.93-0.85-1.32-1.96-1.29C37.77-78.67,37.31-77.72,37.46-76.4
			z M38.93-89.1c1.26-0.21,1.81-1.26,2.01-2.41c0.2-1.13-0.51-1.94-1.62-2.09c-1.63-0.23-1.93,0.94-1.95,2.2
			C37.36-90.37,37.54-89.39,38.93-89.1z M41.16-120.85c-0.33-0.94-0.98-1.95-2.33-1.76c-1.5,0.21-1.52,1.5-1.42,2.69
			c0.09,1.09,0.57,1.94,1.82,1.76C40.56-118.35,41.15-119.27,41.16-120.85z M36.57-105.38c0.03,1.18,0.96,1.64,1.99,1.85
			c1.33-0.08,1.64-1.03,1.7-2.06c0.06-1.07-0.27-2.08-1.57-2.05C37.33-107.61,36.54-106.73,36.57-105.38z M39.07-45.42
			c1.44,0.12,1.76-1.3,1.99-2.4c0.25-1.19-0.4-1.85-1.68-1.95c-1.1-0.01-1.84,0.5-1.92,1.71C37.37-46.81,37.7-45.54,39.07-45.42z
			 M41.17-62.87c-0.33-0.93-0.99-1.93-2.34-1.75c-1.5,0.21-1.52,1.5-1.42,2.69c0.09,1.1,0.57,1.94,1.83,1.76
			C40.57-60.36,41.16-61.28,41.17-62.87z M41.23-134.86c-0.06-1.5-1.01-1.97-2.33-1.98c-1.27,0-2.36,0.35-2.41,1.88
			c-0.06,1.49,0.47,2.79,2.17,2.65C40.01-132.42,41.18-133.19,41.23-134.86z M43.57-84.11c0.17,1.38,1,2.56,2.47,2.55
			c1.48-0.02,2.32-1.08,2.2-2.63c-0.12-1.47-0.89-2.39-2.46-2.53C44.32-86.48,43.38-85.66,43.57-84.11z M46.53-71.73
			c-1.76-0.08-2.18,1.07-2.13,2.54c0.04,1.04,0.34,2.05,1.57,2.03c1.59-0.04,2.17-1.17,2.26-2.58
			C48.21-70.91,47.71-71.67,46.53-71.73z M44.03-40.64c-0.08,1.27,0.99,1.52,2,1.67c1.35-0.01,2.22-0.56,2.15-2.04
			c-0.05-1.19-0.77-1.76-1.91-1.75C44.9-42.75,44.11-41.91,44.03-40.64z M48.22-11.71c0.04-1.4-0.72-2.06-2.39-2.08
			c-0.86,0.2-2.07,0.5-2.08,1.92c-0.01,1.37,0.62,2.69,2.17,2.74C47.46-9.08,48.18-10.24,48.22-11.71z M48.24-26.09
			c-0.1-1.4-0.73-2.51-2.31-2.52c-1.23-0.01-1.51,1.03-1.54,2.07c-0.04,1.48,0.43,2.61,2.18,2.5
			C47.75-24.12,48.23-24.91,48.24-26.09z M48.26-55.27c-0.15-1.08-0.65-2.27-2.25-2.33c-1.24-0.05-1.57,0.94-1.61,1.98
			c-0.05,1.45,0.32,2.63,2.09,2.57C47.67-53.09,48.19-53.83,48.26-55.27z M123.46-149.14c-0.07,1.36,0.61,2.12,2.05,2.15
			c1.44-0.09,2.6-0.75,2.59-2.29c-0.01-1.59-1.34-2.18-2.7-2.2C124-151.48,123.52-150.36,123.46-149.14z M125.7-136.79
			c-1.4-0.02-2.24,0.55-2.23,1.99c0.01,1.23,0.41,2.38,1.78,2.49c1.38,0.11,2.68-0.52,2.84-2.04
			C128.25-135.93,127.08-136.59,125.7-136.79z M118.37-86.46c-1.44,0-1.9,1.18-1.92,2.43c-0.02,1.19,0.13,2.55,1.72,2.45
			c1.33-0.09,2.56-0.72,2.87-2.55C120.52-85.19,119.91-86.46,118.37-86.46z M120.3-98.39c0.02-1.03-0.18-2.04-1.4-2.27
			c-1.21-0.23-3.25,1.49-3.08,2.62c0.21,1.41,1.49,1.56,2.54,1.91C119.99-96.06,120.28-97.15,120.3-98.39z M118.18-110.32
			c1.42,0.19,1.87-1.02,2.07-2.18c0.02-1.4-0.49-2.29-1.97-2.28c-1.24,0.01-2.42,0.41-2.5,1.8
			C115.71-111.49,116.82-110.5,118.18-110.32z M120.29-127.39c0.01-1.29-0.41-2.3-2.24-2.35c-1.22,0.07-1.66,1.06-1.65,2.35
			c0.01,1.28,0.4,2.33,1.95,2.33C119.9-125.05,120.29-126.11,120.29-127.39z M116.41-156.17c0.05,1.37,0.68,2.25,2.15,2.11
			c1.53-0.14,1.74-1.3,1.73-2.55c-0.08-1.37-0.69-2.24-2.16-2.11C116.6-158.57,116.36-157.42,116.41-156.17z M115.77-141.71
			c0.19,1.36,1.18,2.46,2.67,2.38c1.39-0.07,1.79-1.25,1.79-2.5c0-1.47-0.9-1.99-2.47-1.97
			C116.83-143.54,115.57-143.16,115.77-141.71z M108.57-149.25c0.15,1.6,1.18,2.97,2.81,2.88c1.96-0.11,1.95-1.9,1.89-3.41
			c-0.06-1.41-0.88-2.05-2.34-2.01C109.55-151.56,108.43-150.84,108.57-149.25z M108.74-62.9c-0.18,1.43,1.21,2.9,2.63,2.87
			c1.16-0.02,1.77-0.65,1.88-1.91c-0.01-1.34-0.54-2.47-2.08-2.71C109.88-64.85,108.91-64.28,108.74-62.9z M108.75-134.52
			c0.16,1.12,0.7,2.32,2.08,2.4c1.31,0.08,2.2-0.71,2.31-2.03c0.13-1.58-0.81-2.38-2.31-2.58
			C109.51-136.56,108.55-135.91,108.75-134.52z M109.4-120.12c0.06,1.05,0.37,2.02,1.65,1.97c1.37-0.05,2.09-0.98,2.09-2.26
			c-0.01-1.29-0.78-2.1-2.24-2.26C109.52-122.41,109.33-121.33,109.4-120.12z M109.4-105.19c0.04,1.04,0.33,2.06,1.57,2.02
			c1.59-0.04,2.19-1.16,2.27-2.57c-0.03-1.17-0.54-1.93-1.72-1.99C109.76-107.81,109.35-106.65,109.4-105.19z M106.11-127.74
			c-0.21-1.3-1.11-2.01-2.42-1.94c-1.32,0.08-2.2,0.94-2.12,2.23c0.1,1.58,1.43,2,2.75,2.21
			C105.74-125.54,106.32-126.44,106.11-127.74z M106.13-141.71c-0.24-1.27-1.04-2.08-2.38-1.92c-1.24,0.15-1.4,1.26-1.36,2.28
			c0.04,0.99,0.11,2.17,1.54,1.94C105.11-139.59,106.12-140.18,106.13-141.71z M101.58-156.43c-0.01,1.38,1.21,2.05,2.34,2.09
			c1.7,0.05,1.87-1.5,2.2-2.64c-0.01-1.4-0.82-1.81-1.93-1.78C102.69-158.73,101.59-158,101.58-156.43z M99.16-120.1
			c0.01-1.61-0.81-2.54-2.32-2.58c-1.27-0.04-2.14,0.75-2.27,2.06c-0.13,1.3,0.53,2.23,1.81,2.47
			C97.92-117.84,98.8-118.68,99.16-120.1z M96.77-107.85c-1.69,0.06-2.47,0.87-2.27,2.5c0.13,1.04,0.61,2.04,1.73,2.02
			c1.68-0.04,2.68-1.23,2.83-2.8C99.21-107.73,97.87-107.79,96.77-107.85z M94.56-149.64c-0.12,1.58,0.77,2.52,2.3,2.56
			c1.29,0.03,2.09-0.8,2.3-2.15c-0.18-1.6-1.35-2.16-2.72-2.26C95.3-151.56,94.64-150.71,94.56-149.64z M92.18-127.42
			c-0.21-1.52-1.12-2.28-2.61-2.36c-1.59-0.09-2.47,0.81-2.59,2.28c-0.1,1.22,1.81,2.61,3.14,2.41
			C91.42-125.28,92.04-126.15,92.18-127.42z M89.79-114.78c-1.37-0.14-2.86,0.13-2.98,1.75c-0.13,1.68,1.23,2.48,2.76,2.98
			c1.57-0.13,2.24-1.25,2.37-2.59C92.08-114.04,91.02-114.66,89.79-114.78z M87.4-156.34c-0.01,1.03,0.23,2,1.44,2.23
			c1.29,0.24,3.42-1.25,3.26-2.31c-0.24-1.57-1.58-1.9-2.81-2.23C87.64-158.66,87.41-157.56,87.4-156.34z M80.41-149.54
			c-0.03,1.25,0.23,2.39,1.78,2.49c1.5,0.1,2.03-0.84,2.11-2.17c-0.02-1.25-0.23-2.39-1.79-2.49
			C81-151.81,80.44-150.89,80.41-149.54z M80.03-134.17c0.36,1.15,1.23,2.09,2.51,1.87c1.48-0.25,2.11-1.6,2.16-2.91
			c0.04-1.24-0.86-2.03-2.1-2.07C81.09-137.11,79.65-135.39,80.03-134.17z M77.2-70.02c-0.12-1.22-0.82-1.78-1.95-1.76
			c-1.47,0.03-2.62,0.67-2.62,2.25c0.01,1.55,1.32,1.61,2.49,1.58C76.46-67.99,77.22-68.65,77.2-70.02z M75.26-57.63
			c-1.28-0.09-1.77,0.67-1.85,1.78c-0.09,1.18-0.08,2.5,1.41,2.7c1.31,0.18,2.17-0.69,2.3-2.01C77.25-56.49,76.55-57.31,75.26-57.63
			z M77.25-84.26c-0.17-1.35-0.84-2.48-2.47-2.37c-1.41,0.1-1.99,1.26-1.79,2.49c0.2,1.26,0.57,2.8,2.38,2.53
			C76.66-81.8,77.32-82.77,77.25-84.26z M74.81-154.16c1.3,0.17,2.18-0.68,2.33-2.01c0.14-1.33-0.58-2.14-2.13-2.54
			c-0.89,0.09-1.53,0.67-1.59,1.83C73.35-155.69,73.31-154.36,74.81-154.16z M73.46-127.3c0.16,1.07,0.65,1.97,1.93,1.7
			c1.03-0.22,1.81-0.82,1.74-2.16c-0.28-1.21-1.05-2.04-2.41-1.85C73.48-129.43,73.31-128.35,73.46-127.3z M73.48-141.31
			c0.14,1.04,0.59,1.89,1.89,1.97c1.37-0.61,1.81-1.82,1.68-3.19c-0.09-0.96-0.93-1.29-1.84-1.22
			C73.68-143.63,73.31-142.61,73.48-141.31z M72.78-112.9c-0.1,1.16,0.85,1.75,1.92,1.81c1.33,0.07,2.14-0.66,2.37-1.82
			c0.1-1.16-0.49-1.75-1.37-1.85C74.3-114.91,72.93-114.6,72.78-112.9z M70.15-62.15c0.01-1.56-0.81-2.49-2.31-2.54
			c-1.27-0.04-2.16,0.77-2.26,2.07c-0.13,1.56,0.77,2.49,2.27,2.54C69.12-60.05,69.92-60.85,70.15-62.15z M68.44-49.81
			c-1.12-0.09-2.36-0.22-2.8,1.22c-0.34,1.1,1.17,3.15,2.38,3.27c1.51-0.13,1.37-1.54,1.73-2.51
			C70.19-48.98,69.65-49.72,68.44-49.81z M65.62-77.12c0.21,1.6,1.33,2.12,2.2,2.13c1.53-0.04,2.18-0.5,2.29-1.43
			c0.17-1.39-1.45-2.62-3.08-2.35C66.14-78.62,65.49-78.11,65.62-77.12z M70.19-91.35c-0.15-1.28-0.77-2.19-2.09-2.3
			c-1.57-0.14-2.49,0.76-2.54,2.26c-0.04,1.26,0.72,2.17,2.04,2.29C69.17-88.97,69.95-89.89,70.19-91.35z M65.55-120.12
			c0.22,1.27,1.03,2.08,2.29,2.04c1.5-0.05,2.45-0.98,2.28-2.53c-0.17-1.52-1.21-2.29-2.74-2C66.1-122.38,65.51-121.46,65.55-120.12
			z M68.2-132.35c1.41-0.21,1.56-1.49,1.89-2.48c0.09-1.34-0.69-2.03-2.24-2c-1.02,0.02-2.04,0.18-2.28,1.41
			C65.34-134.24,67.07-132.18,68.2-132.35z M68.1-107.68c-1.11-0.16-2.05,0.35-2.28,1.42c-0.31,1.45,0.74,2.07,1.99,2.25
			c1.05,0.16,1.98-0.07,2.34-1.43C70.04-106.61,69.44-107.5,68.1-107.68z M65.55-149.5c-0.02,1.46,0.76,2.78,2.19,2.88
			c1.49,0.11,2.15-1.25,2.44-2.62c-0.29-1.62-1.44-2.22-2.84-2.24C66.16-151.5,65.56-150.56,65.55-149.5z M60.41-154.24
			c1.18-0.22,2.3-0.55,2.64-1.86c0.3-1.15-1.43-2.6-2.99-2.56c-0.98,0.03-1.51,0.62-1.58,1.52
			C58.36-155.69,58.78-154.55,60.41-154.24z M62.95-112.96c-0.31-1.38-1.28-1.83-2.52-1.82c-1.44,0-2.06,0.86-1.91,2.22
			c0.13,1.18,1,1.63,2.08,1.56C61.83-111.09,62.81-111.55,62.95-112.96z M60.89-100.62c-1.32-0.12-2.19,0.68-2.33,2
			c-0.15,1.33,0.54,2.26,1.86,2.44c1.63,0.22,1.81-1.01,1.9-2.15C62.28-99.42,62.13-100.51,60.89-100.62z M58.49-127.4
			c0.14,1.23,0.77,2.22,2.13,2.24c1.61,0.02,1.63-1.25,1.69-2.53c-0.11-1.14-0.59-2.09-2.05-2.04
			C58.77-129.67,58.35-128.67,58.49-127.4z M60.44-139.34c1.4-0.08,1.75-1.25,1.81-2.46c-0.04-1.15-0.55-1.89-1.74-1.95
			c-1.45-0.07-2.11,0.75-2.04,2.11C58.54-140.42,59-139.26,60.44-139.34z M52.87-146.45c1.34-0.28,2.8-0.68,3.02-2.12
			c0.27-1.7-1.06-2.71-2.56-3.05c-1.71-0.38-2.34,1.05-2.57,2.31C50.48-147.81,51.55-146.95,52.87-146.45z M55.77-105.49
			c-0.27-1.23-0.82-2.21-2.22-2.28c-1.43-0.06-2.16,0.72-2.08,2.12c0.06,1.24,0.53,2.4,1.98,2.35
			C54.69-103.35,55.46-104.27,55.77-105.49z M55.28-91.61c-0.05-1.37-0.69-2.24-2.16-2.1c-1.53,0.14-1.76,1.29-1.72,2.54
			c0.05,1.37,0.68,2.18,2.13,2.13C55.08-89.27,55.33-90.35,55.28-91.61z M53.25-132.34c1.44,0.09,1.82-1.09,2-2.28
			c-0.03-1.36-0.62-2.19-2.06-2.12c-1.19,0.06-1.73,0.8-1.73,1.93C51.46-133.57,51.86-132.42,53.25-132.34z M51.47-33.61
			c0.1,1.47,0.83,2.41,2.39,2.5c1.47-0.41,1.5-1.55,1.41-2.72c-0.1-1.4-0.92-2.05-2.27-1.88C51.83-35.57,51.39-34.69,51.47-33.61z
			 M53.45-45.34c1.4-0.1,1.74-1.27,1.79-2.48c-0.07-1.14-0.56-1.89-1.76-1.93c-1.46-0.06-2.09,0.79-2.02,2.13
			C51.54-46.4,52.01-45.24,53.45-45.34z M55.72-62.08c-0.08-1.51-1.1-2.29-2.46-2.54c-1.23-0.23-1.76,0.65-1.83,1.75
			c-0.09,1.39,0.04,2.71,1.87,2.83C54.68-59.94,55.36-60.78,55.72-62.08z M50.79-19.04c-0.11,1.43,1.01,1.95,2.23,2.03
			c1.33,0.09,2.21-0.5,2.16-1.98c-0.04-1.2-0.74-1.73-2.21-1.82C52.14-20.67,50.9-20.46,50.79-19.04z M55.9-4.89
			c-0.06-1.69-1.52-1.98-2.9-1.89c-1.23,0.08-2.41,0.65-2.23,2.07c0.17,1.38,1.2,2.27,2.66,2.5C54.79-2.64,55.96-3.43,55.9-4.89z
			 M55.99-76.82c-0.25-1.53-1.25-2.53-2.82-2.79c-1.24-0.2-1.68,0.75-1.75,1.82c-0.09,1.41,0.12,2.68,1.92,2.78
			C54.58-74.94,55.57-75.37,55.99-76.82z M56.01-120.34c-0.51-0.93-0.71-2.46-2.45-2.28c-1.56,0.17-2.13,1.32-2.08,2.77
			c0.05,1.46,1,1.96,2.29,1.83C55-118.13,55.91-118.72,56.01-120.34z M62.29-11.58c-0.03-1.32-0.59-2.19-2-2.17
			c-1.25,0.09-1.84,0.76-1.83,1.92c0.01,1.65,1.18,2.39,2.54,2.44C62.31-9.34,62.31-10.6,62.29-11.58z M62.31-26.54
			c-0.05-1.04-0.3-2.08-1.54-2.07c-1.57,0.01-2.29,1.08-2.31,2.57c-0.02,1.39,0.75,2.13,2.14,1.99
			C62.07-24.2,62.3-25.32,62.31-26.54z M58.47-69.57c0.12,1.45,0.85,2.54,2.46,2.39c1.23-0.11,1.34-1.22,1.39-2.23
			c-0.05-1.24-0.38-2.28-1.88-2.33C58.97-71.78,58.37-70.9,58.47-69.57z M60.6-38.13c1.27-0.06,1.64-0.9,1.68-1.96
			c0.06-1.42-0.21-2.65-2.01-2.64c-1.17,0.01-1.76,0.71-1.79,1.84C58.45-39.42,59.06-38.41,60.6-38.13z M62.33-55.46
			c-0.15-0.82-0.04-2.18-1.7-2.15c-1.37,0.02-2.1,0.97-2.08,2.25c0.02,1.28,0.77,2.19,2.14,2.21
			C61.97-53.12,62.23-54.12,62.33-55.46z M63.1-84.27c-0.01-1.58-1.34-2.18-2.7-2.2c-1.4-0.02-1.87,1.11-1.94,2.33
			c-0.07,1.35,0.6,2.13,2.04,2.15C61.94-82.08,63.11-82.73,63.1-84.27z M69.22-4.93c0.01-0.92-0.42-1.51-1.48-1.78
			c-1.1,0.16-2.01,0.69-2.13,2.05c-0.09,0.98,0.52,1.53,1.4,1.62C68.34-2.91,69.21-3.47,69.22-4.93z M69.87-19.59
			c0.1-1.39-1.24-1.66-2.38-1.95c-1.35,0.13-1.96,1-1.95,2.27c0.01,1.39,1.73,3.22,2.72,2.88C69.74-16.89,69.79-18.42,69.87-19.59z
			 M70.2-33.39c-0.23-1.49-1.03-2.39-2.59-2.27c-1.32,0.1-2.06,1.02-2.06,2.28c0,1.27,0.74,2.17,2.06,2.28
			C69.18-30.98,69.96-31.91,70.2-33.39z M72.55-98.4c0.05,1.49,0.96,2.42,2.53,2.29c1.32-0.11,2.1-1.01,2.07-2.28
			c-0.04-1.51-0.98-2.32-2.54-2.32C73.32-100.47,72.51-99.67,72.55-98.4z M77.17-11.63c-0.22-1.26-1.01-2.1-2.33-2.02
			c-1.25,0.08-1.52,1.15-1.39,2.2c0.15,1.25,0.75,2.34,2.19,2.11C76.72-9.5,77.2-10.45,77.17-11.63z M77.25-27.19
			c-0.18-0.8-0.63-1.64-1.87-1.42c-1.31,0.23-2.57,0.71-2.82,2.26c-0.2,1.24,1.25,2.49,2.57,2.25
			C76.68-24.38,77.21-25.48,77.25-27.19z M77.9-40.98c-0.08-1.39-1.26-1.78-2.5-1.78c-1.47,0-2.06,0.9-1.95,2.23
			c0.1,1.23,0.65,2.19,2.1,2.29C76.82-38.74,77.99-39.48,77.9-40.98z M79.59-120.1c0.16,1.39,1.15,2,2.41,2.1
			c1.38,0.11,2.21-0.59,2.28-2.02c0.05-1.21,0.01-2.38-1.51-2.63C81.22-122.75,79.45-121.34,79.59-120.1z M84.27-90.94
			c0.08-1.18,0.08-2.36-1.46-2.74c-1.43,0.12-2.62,0.9-2.89,2.24c-0.35,1.78,1.3,2.05,2.53,2.28
			C83.67-88.94,84.19-89.84,84.27-90.94z M82.27-78.74c-1.18,0.03-1.77,0.72-1.8,1.85c-0.04,1.25,0.36,2.39,1.71,2.55
			c1.46,0.17,1.86-1.02,2.07-2.16C84.24-77.87,83.77-78.79,82.27-78.74z M79.77-105.8c0.12,1.41,1.11,2.47,2.57,2.48
			c1.41,0.02,1.84-1.17,1.88-2.4c0.04-1.42-0.75-2.07-2.44-2.07C80.95-107.54,79.65-107.27,79.77-105.8z M80.42-33.02
			c0.07,1.06,0.47,1.99,1.72,1.85c1.58-0.18,2.08-1.33,2.1-2.65c-0.1-1.27-0.7-1.93-1.87-1.9C80.57-35.68,80.33-34.43,80.42-33.02z
			 M82.76-6.71c-1.32-0.2-2.24,0.35-2.29,1.82c-0.05,1.25,0.39,2.22,1.95,2.67c1.07-0.25,1.74-1.06,1.82-2.32
			C84.31-5.62,83.93-6.53,82.76-6.71z M84.27-18.74c0-1.28-0.33-2.48-1.69-2.69c-1.46-0.22-2.04,0.94-2.13,2.17
			c-0.11,1.39,0.18,2.84,1.9,2.91C83.78-16.29,84.14-17.54,84.27-18.74z M84.66-48.22c-0.05-1.52-1.42-1.66-2.61-1.58
			c-1.25,0.09-2.45,0.63-2.27,2.07c0.17,1.4,1.21,2.29,2.77,2.51C83.92-45.72,84.71-46.85,84.66-48.22z M85.01-62.67
			c-0.33-1.27-1.41-1.71-2.54-1.94c-1.17-0.24-1.91,0.35-2.01,1.57c-0.1,1.27,0.27,2.48,1.6,2.71
			C83.63-60.07,84.37-61.32,85.01-62.67z M88.92-139.38c1.8,0.41,2.55-1.09,3.18-2.4c0.24-1.58-0.77-2.19-1.9-2.58
			c-1.31-0.46-3.23,0.69-3.42,2.06C86.55-140.7,87.62-139.67,88.92-139.38z M89.39-13.75c-1.39-0.08-2.24,0.74-2.36,2
			c-0.14,1.58,1.05,2.34,2.41,2.6c1.26,0.24,1.7-0.68,1.84-1.85C91.32-12.32,91.23-13.64,89.39-13.75z M89.88-53.15
			c1.22-0.06,1.44-1.2,1.42-2.23c-0.02-1.23-0.27-2.47-1.89-2.22c-1.38,0.21-2.31,1.14-2.65,2.61
			C87.3-53.55,88.56-53.08,89.88-53.15z M91.3-26.31c-0.03-1.27-0.33-2.36-1.88-2.4c-1.52-0.04-2.01,0.94-2.02,2.26
			c0,1.26,0.32,2.36,1.87,2.41C90.82-24,91.24-25.01,91.3-26.31z M91.31-40.56c-0.05-0.78-0.09-2.15-1.97-2.17
			c-1.17-0.01-1.81,0.63-1.85,1.79c-0.05,1.64,1.05,2.37,2.42,2.57C90.91-38.23,91.24-39.09,91.31-40.56z M91.91-69.88
			c0.02-1.41-1.18-1.79-2.34-1.9c-1.48,0.02-2.19,0.78-2.11,2.15c0.07,1.22,0.54,2.42,1.97,2.32
			C90.84-67.42,91.89-68.43,91.91-69.88z M91.99-83.91c-0.28-1.4-1.14-2.47-2.55-2.55c-1.48-0.09-2.55,1.04-2.65,2.4
			c-0.13,1.7,1.3,2.1,2.71,2.07C90.73-82.02,91.74-82.47,91.99-83.91z M92.2-98.23c-0.03-1.22-0.66-2.26-2.22-2.51
			c-1.41-0.22-2.94,0-3.16,1.6c-0.24,1.72,1.16,2.68,2.71,3C90.85-95.85,91.71-96.65,92.2-98.23z M94.45-134.87
			c0,1.17,0.33,2.36,1.69,2.54c1.55,0.21,2.49-0.98,2.77-2.26c0.3-1.39-0.85-2.02-2.09-2.17C95.5-136.91,94.57-136.41,94.45-134.87z
			 M94.6-33.64c-0.1,0.98,0.55,1.52,1.42,1.61c1.32,0.13,2.19-0.44,2.2-1.91c0.01-0.92-0.43-1.51-1.36-1.74
			C95.58-35.59,94.73-34.97,94.6-33.64z M96.89-45.44c1.85,0.21,1.42-1.75,1.97-2.72c0.17-1.46-0.8-1.65-1.82-1.68
			c-1.17-0.03-2.44,0.05-2.43,1.63C94.62-46.77,95.59-45.59,96.89-45.44z M94.47-18.87c0,1.41,0.85,2.06,2.05,2.35
			c1.11,0,2.51-1.9,2.46-3.32c-0.04-0.96-0.63-1.54-1.52-1.67C95.96-21.72,94.48-20.37,94.47-18.87z M98.99-4.71
			c-0.13-1.42-1.06-1.98-2.29-2.07c-1.31-0.09-2.21,0.48-2.22,1.93c-0.01,1.47,0.61,2.63,2.16,2.71
			C98.28-2.06,98.66-3.44,98.99-4.71z M99.06-62.79c-0.24-1.16-0.96-1.97-2.3-1.9c-1.3,0.06-2.14,0.87-2.2,2.19
			c-0.06,1.3,0.63,2.25,1.96,2.37C98.25-59.98,98.58-61.39,99.06-62.79z M99.06-77.12c0.16-1.59-1.18-1.67-2.3-1.73
			c-1.67,0.06-2.47,0.87-2.28,2.5c0.12,1.03,0.6,2.05,1.73,2.02C97.9-74.37,98.91-75.55,99.06-77.12z M99.18-91.29
			c-0.1-1.33-0.73-2.26-2.09-2.38c-1.64-0.15-2.45,0.88-2.61,2.37c-0.15,1.34,0.44,2.27,1.94,2.28
			C97.95-89.01,98.91-89.75,99.18-91.29z M101.44-97.9c0.11,1.44,1.01,2.03,2.35,1.88c1.48-0.17,2.39-1,2.36-2.66
			c-0.33-1.5-1.35-2.16-2.85-2.06C101.49-100.63,101.33-99.31,101.44-97.9z M104.32-86.39c-1.5-0.01-2.45,1.07-2.55,2.52
			c-0.08,1.18,0.91,1.76,1.98,1.79c1.34,0.03,2.18-0.67,2.26-2.3C105.57-85.04,105.52-86.38,104.32-86.39z M103.6-38.15
			c1.92,0,2.16-1.61,2.52-2.91c-0.09-1.38-0.9-1.76-1.99-1.71c-1.49,0.07-2.53,0.83-2.58,2.36
			C101.51-39.15,102.27-38.15,103.6-38.15z M106.11-12.02c-0.02-1.14-0.61-1.67-1.52-1.72c-1.77-0.1-2.27,1.02-2.2,2.54
			c0.05,1.03,0.3,2.15,1.6,1.99C105.59-9.41,105.81-10.87,106.11-12.02z M106.14-26.65c-0.24-1.28-1.03-2.14-2.34-1.96
			c-1.5,0.21-1.48,1.53-1.39,2.71c0.09,1.1,0.59,1.94,1.84,1.74C105.58-24.36,106.16-25.29,106.14-26.65z M106.14-55.55
			c-0.08-1.29-0.93-2.01-2.23-2.11c-1.53,0.29-1.6,1.47-1.53,2.62c0.07,1.11,0.1,2.6,1.68,2.37
			C105.46-52.87,106.23-54.11,106.14-55.55z M106.19-69.34c-0.15-1.28-0.73-2.2-2.11-2.27c-1.29-0.06-1.64,0.88-1.68,1.94
			c-0.04,1.18,0,2.47,1.59,2.52C105.34-67.11,105.99-68.07,106.19-69.34z M106.23-112.74c-0.02-1.47-0.87-2.07-2.18-2.1
			c-1.18-0.03-2.47,0.08-2.43,1.65c0.03,1.3,0.45,2.8,2.05,2.82C105.01-110.35,106.11-111.19,106.23-112.74z M113.25-4.76
			c-0.07-1.5-0.89-2.14-2.23-2.01c-1.44,0.13-2.52,0.87-2.42,2.46c0.09,1.36,1.3,1.92,2.41,2.02C112.67-2.15,113.16-3.4,113.25-4.76
			z M108.8-19.05c-0.16,1.45,1,1.95,2.21,2.04c1.31,0.1,2.21-0.48,2.17-1.96c-0.03-1.19-0.71-1.74-1.88-1.82
			C110.1-20.77,108.95-20.41,108.8-19.05z M110.75-31.17c1.61,0.17,2.26-0.94,2.48-2.29c0.02-1.15-0.29-2.08-1.48-2.24
			c-1.68-0.23-2.36,0.75-2.37,2.29C109.39-32.41,109.54-31.3,110.75-31.17z M113.25-47.77c0.04-1.67-0.68-2.9-2.53-2.89
			c-1.31,0.01-2.01,0.91-2.23,2.29c0.15,1.65,1.32,2.5,2.84,2.76C112.92-45.33,113.22-46.59,113.25-47.77z M113.26-77.14
			c-0.17-0.7-0.52-1.57-1.76-1.61c-1.45-0.05-2.11,0.75-2.04,2.11c0.06,1.22,0.53,2.37,1.97,2.3
			C112.84-74.41,113.17-75.58,113.26-77.14z M113.29-91.43c-0.06-1.3-0.46-2.32-2-2.28c-1.55,0.04-1.9,1.11-1.89,2.38
			c0.01,1.3,0.46,2.31,1.99,2.28C112.95-89.08,113.25-90.17,113.29-91.43z M115.49-55.14c-0.1,1.73,1.02,2.22,2.52,2.19
			c1.65-0.03,2.31-0.96,2.28-2.51c-0.04-1.27-0.45-2.27-1.93-2.3C116.61-57.79,115.59-56.88,115.49-55.14z M118.24-42.73
			c-1.21,0.05-1.77,0.78-1.74,1.95c0.03,1.24,0.77,1.75,2.14,1.75c0.97-0.14,1.6-0.77,1.55-1.96
			C120.13-42.2,119.42-42.78,118.24-42.73z M120.29-11.21c0.06-1.5-0.43-2.56-2.22-2.58c-1.14,0.15-2.39,0.52-2.27,1.93
			c0.13,1.61,1.32,2.63,2.95,2.7C119.99-9.11,120.25-10.18,120.29-11.21z M120.32-26.35c-0.04-1.15-0.26-2.41-2.08-2.37
			c-1.18,0.03-1.76,0.74-1.76,1.87c-0.01,1.46,0.59,2.58,2.17,2.69C119.92-24.07,120.2-25.06,120.32-26.35z M121.05-69.98
			c-0.33-1.1-1.15-1.77-2.43-1.81c-1.39-0.04-2.84,0.27-2.83,1.97c0.01,1.41,1.1,2.5,2.53,2.52
			C119.79-67.28,120.58-68.42,121.05-69.98z M124.84-117.49c1.72-0.17,2.67-1.26,3.06-2.8c0.36-1.43-0.5-2.22-1.81-2.36
			c-1.62-0.17-2.43,0.86-2.62,2.33C123.31-119.14,123.48-118,124.84-117.49z M123.47-91.75c0.03,1.47,0.71,2.63,2.26,2.63
			c1.58-0.01,2.18-1.34,2.2-2.7c0.02-1.41-1.12-1.81-2.27-1.96C124.25-93.78,123.44-93.17,123.47-91.75z M125.61-103.21
			c1.05-0.45,2.24-1.12,2.32-2.59c0.07-1.43-1.09-1.91-2.32-1.98c-1.38-0.08-2.17,0.63-2.13,2.05
			C123.5-104.49,123.95-103.5,125.61-103.21z M123.46-76.58c0.08,1.21,0.6,2.44,2.02,2.25c1.59-0.21,2.63-1.4,2.61-3.05
			c-0.02-1.22-1.12-1.43-2.15-1.46C124.36-78.9,123.35-78.25,123.46-76.58z M123.47-47.66c0.04,1.23,0.53,2.49,1.97,2.33
			c1.76-0.2,2.27-1.82,2.41-3.29c0.09-1.01-0.95-1.16-1.79-1.22C124.54-49.9,123.41-49.41,123.47-47.66z M125.65-60.16
			c1.28,0.05,1.6-0.92,1.64-1.97c0.04-1.18-0.03-2.35-1.87-2.55c-0.99,0.27-1.89,0.95-1.87,2.27
			C123.56-61.12,124.29-60.22,125.65-60.16z M128.04-4.95c-0.29-1.08-1.08-1.76-2.35-1.83c-1.32-0.07-2.21,0.49-2.21,1.94
			c-0.01,1.47,0.62,2.63,2.17,2.7C127.28-2.07,127.67-3.44,128.04-4.95z M125.47-17.05c1.21-0.06,1.77-0.79,1.72-1.96
			c-0.05-1.23-0.78-1.75-2.25-1.74c-0.86,0.16-1.5,0.79-1.44,1.98C123.57-17.55,124.3-17,125.47-17.05z M128.18-33.43
			c-0.24-1.54-1.18-2.31-2.71-2.34c-1.48-0.02-2.11,0.86-1.99,2.23c0.13,1.49,0.93,2.52,2.55,2.43
			C127.39-31.19,128.04-32.11,128.18-33.43z M135.03-69.64c0.15-1.5-0.49-2-1.38-2.09c-1.38-0.14-2.23,0.53-2.19,1.98
			c0.03,1.23,0.43,2.5,1.9,2.32C134.67-67.59,134.88-68.96,135.03-69.64z M133.15-57.65c-1.37,0.02-1.73,0.9-1.75,1.98
			c-0.02,1.17-0.05,2.56,1.63,2.46c1.39-0.09,1.82-1.35,1.92-2.53C135.04-56.92,134.2-57.47,133.15-57.65z M134.99-84.49
			c0.04-1.19-0.55-1.94-1.67-2.11c-1.23-0.19-1.83,0.56-1.91,1.71c-0.08,1.17-0.15,2.56,1.4,2.7
			C134.24-82.05,134.58-83.41,134.99-84.49z M135-11.02c-0.3-1.27-0.67-2.65-2.35-2.63c-1.33,0.02-2.16,0.95-2.08,2.28
			c0.09,1.38,1.29,1.9,2.43,2.08C134.14-9.1,134.86-9.77,135-11.02z M132.66-24.15c1.29,0.04,1.57-0.93,1.66-2
			c-0.03-1.16-0.04-2.45-1.65-2.46c-1.37-0.01-2.12,0.96-2.12,2.23C130.53-25.1,131.29-24.2,132.66-24.15z M133.36-42.74
			c-1.51-0.01-1.97,0.98-1.98,2.27c-0.01,1.02,0.12,2,1.39,2.33c1.62-0.18,2.06-1.46,2.29-2.76
			C135.28-42.11,134.55-42.73,133.36-42.74z M135.15-98.42c-0.01-1.3-0.8-2.09-2.12-2.24c-1.61,0.18-1.68,1.35-1.64,2.54
			c0.04,1.05,0.37,2.02,1.66,1.97C134.42-96.21,135.16-97.14,135.15-98.42z M131.46-112.4c0.11,1.04,0.54,1.91,1.84,2.06
			c1.41-0.52,1.83-1.76,1.77-3.11c-0.04-0.93-0.85-1.33-1.78-1.29C131.76-114.69,131.33-113.71,131.46-112.4z M137.4-91.13
			c0.02,1.06,0.34,1.95,2,2.02c0.89-0.26,1.79-0.94,1.76-2.27c-0.03-1.28-0.77-2.24-2.13-2.22C137.42-93.6,137.37-92.31,137.4-91.13
			z M139.44-104.04c1.24-0.03,1.76-0.76,1.76-2.14c-0.14-0.97-0.76-1.61-1.96-1.55c-1.21,0.06-1.79,0.77-1.74,1.95
			C137.54-104.57,138.27-104.01,139.44-104.04z M139.23-78.75c-1.18,0.05-1.75,0.75-1.77,1.89c-0.02,1.25,0.38,2.39,1.75,2.52
			c1.46,0.13,1.84-1.06,2.04-2.2C141.24-77.93,140.7-78.8,139.23-78.75z M138.87-60.11c1.56-0.13,2.27-1.09,2.34-2.57
			c0.05-1.09-0.42-1.92-1.59-2.05c-1.38-0.15-2.14,0.56-2.22,1.94C137.34-61.6,137.39-60.46,138.87-60.11z M138.95-49.72
			c-1.13,0.15-1.58,1.01-1.46,2.09c0.12,1.15,0.87,1.63,2.2,1.58c0.9-0.13,1.53-0.73,1.5-1.87
			C141.16-49.37,140.23-49.89,138.95-49.72z M139.02-31.16c1.37,0.02,1.99-0.94,2.18-2.24c-0.17-1.26-0.79-2.18-2.15-2.23
			c-1.28-0.05-1.61,0.92-1.64,1.98C137.37-32.47,137.42-31.18,139.02-31.16z M139.65-6.74c-1.36-0.05-2.08,0.57-2.21,1.69
			c-0.17,1.49,0.88,2.94,2.05,2.73c1.13-0.19,1.6-1.06,1.71-2.09C141.33-5.7,140.91-6.65,139.65-6.74z M141.65-19.08
			c0.08-1.14-0.68-1.49-1.49-1.65c-1.22-0.24-2.36-0.05-2.66,1.4c-0.27,1.3,0.32,2.41,1.59,2.61
			C140.76-16.44,140.96-18.14,141.65-19.08z M143.77-69.72c0.17,1.39,1.2,2.28,2.63,2.51c1.27-0.32,2.31-1.05,2.29-2.3
			c-0.03-1.5-1.05-2.4-2.65-2.26C144.8-71.67,143.6-71.16,143.77-69.72z M146.44-82.05c1.2-0.03,1.73-0.73,1.8-1.89
			c-0.03-1.2-0.36-2.37-1.75-2.49c-1.42-0.12-1.96,0.99-2.03,2.22C144.37-82.89,144.95-82.01,146.44-82.05z M143.87-26.27
			c-0.16,1.67,1.49,1.84,2.68,2.16c1.68-0.15,1.76-1.32,1.73-2.51c-0.03-1.05-0.34-2.06-1.62-2
			C145.18-28.56,143.99-27.6,143.87-26.27z M144.48-40.33c0.13,1.03,0.62,2.02,1.76,1.99c1.72-0.04,2.04-1.37,1.95-2.77
			c-0.07-1.18-0.86-1.67-2-1.64C144.71-42.59,144.32-41.61,144.48-40.33z M148.71-11.62c-0.16-1.27-0.91-2.09-2.69-2.2
			c-0.78,0.13-2.07,0.3-2.24,1.72c-0.19,1.56,1.01,2.39,2.29,2.82C147.16-8.93,148.85-10.46,148.71-11.62z M148.98-54.91
			c-0.36-1.51-1.31-2.55-2.93-2.69c-1.27-0.11-1.59,0.9-1.64,1.94c-0.07,1.45,0.31,2.63,2.06,2.65
			C147.7-53,148.68-53.47,148.98-54.91z M155.3-4.53c-0.08-1.34-0.58-2.26-2.04-2.2c-1.5,0.06-1.92,1.06-1.78,2.33
			c0.14,1.23,0.77,2.22,2.13,2.24C155.23-2.14,155.24-3.41,155.3-4.53z M155.31-19.54c-0.06-0.96-0.26-2.05-1.48-2.09
			c-1.58-0.05-2.3,1.04-2.36,2.52c-0.05,1.37,0.65,2.16,2.07,2.05C155.04-17.16,155.27-18.26,155.31-19.54z M156.12-33.72
			c-0.36-1.48-1.38-2.11-2.85-2.03c-1.46,0.07-1.94,1.04-1.81,2.33c0.12,1.24,0.75,2.3,2.13,2.13
			C154.89-31.45,156.12-32.01,156.12-33.72z M151.46-47.54c0.09,1.23,0.64,2.2,2.1,2.3c1.28-0.49,2.44-1.23,2.36-2.74
			c-0.08-1.38-1.24-1.8-2.49-1.8C151.95-49.78,151.36-48.88,151.46-47.54z M153.61-60.12c1.33-0.11,1.65-0.98,1.68-2.03
			c0.05-1.45-0.32-2.63-2.09-2.57c-1.17,0.04-1.72,0.78-1.72,1.91C151.48-61.34,152.13-60.35,153.61-60.12z M153.7-107.79
			c-1.4-0.02-2.24,0.55-2.23,1.99c0.01,1.23,0.41,2.38,1.78,2.49c1.38,0.11,2.68-0.52,2.84-2.04
			C156.25-106.93,155.08-107.59,153.7-107.79z M153.41-147c1.25,0,2.42-0.41,2.5-1.79c0.09-1.5-1.08-2.25-2.36-2.74
			c-1.45,0.1-2.01,1.04-2.1,2.29C151.36-147.92,151.93-147,153.41-147z M153.6-132.52c1.35-0.04,1.97-1.02,2.4-2.1
			c0.12-1.07-0.96-2.11-2.27-2.17c-1.07-0.05-1.97,0.27-2.23,1.47C151.2-134.02,152.33-132.47,153.6-132.52z M151.4-120.57
			c-0.06,1.5,0.45,2.61,2.17,2.56c1.22-0.03,2.21-0.52,2.45-2.21c-0.58-1.15-1.36-2.4-3.06-2.41
			C151.7-122.64,151.43-121.6,151.4-120.57z M150.83-91.51c0.04,1.33,0.84,2.45,2.45,2.51c1.37,0.05,2.82-1.43,2.68-2.85
			c-0.13-1.4-1.11-1.84-2.45-1.86C152.35-93.34,150.78-93.16,150.83-91.51z M150.8-76.89c-0.05,1.62,1.47,1.98,2.75,2.41
			c1.51-0.2,2.38-1.18,2.52-2.58c0.16-1.63-1.16-1.79-2.35-1.78C152.35-78.83,150.85-78.6,150.8-76.89z M144.47-156.75
			c0.02,1.48,0.71,2.57,2.28,2.59c1.24,0.02,1.49-1.02,1.54-2.05c0.01-1.22-0.21-2.34-1.68-2.5
			C145.23-158.86,144.45-158.15,144.47-156.75z M148.28-127.17c0.02-1.25-0.19-2.4-1.72-2.54c-1.47-0.14-2.11,0.73-2.16,2.1
			c-0.04,1.25,0.19,2.4,1.71,2.55C147.6-124.92,148.2-125.8,148.28-127.17z M146.23-114.75c-1.2,0.05-1.75,0.78-1.75,1.92
			c0.01,1.38,0.84,2.18,2.11,2.26c1.27,0.08,1.51-1,1.67-2.01C148.25-113.94,147.71-114.82,146.23-114.75z M143.78-141.69
			c0.2,1.35,1.19,2.27,2.63,2.43c1.42-0.34,1.82-1.34,1.81-2.59c-0.01-1.47-0.92-2.05-2.25-1.93
			C144.75-143.67,143.57-143.1,143.78-141.69z M143.76-98.7c0.12,1.31,0.68,2.7,2.34,2.56c1.59-0.13,2.58-1.21,2.89-2.77
			c-0.42-1.66-1.65-1.99-3.02-1.87C144.75-100.68,143.63-100.12,143.76-98.7z M139.41-147.11c0.89-0.29,1.77-0.97,1.75-2.32
			c-0.02-1.07-0.56-2.01-1.72-2.03c-1.45-0.03-1.92,1.09-1.99,2.33C137.38-148.03,137.75-147.16,139.41-147.11z M139.5-132.31
			c1.12-0.2,1.6-1.06,1.7-2.1c0.13-1.29-0.3-2.25-1.55-2.33c-1.36-0.05-2.07,0.57-2.2,1.7C137.27-133.54,138.33-132.1,139.5-132.31z
			 M138.91-118.1c1.43-0.12,2.63-0.92,2.87-2.26c0.33-1.77-1.31-2.04-2.56-2.25c-1.24-0.2-1.74,0.7-1.81,1.8
			C137.32-119.62,137.36-118.45,138.91-118.1z M135.19-127.4c-0.22-1.56-1.16-2.33-2.69-2.36c-1.47-0.03-2.14,0.83-2.02,2.21
			c0.12,1.49,0.92,2.53,2.54,2.45C134.37-125.18,135.03-126.1,135.19-127.4z M135.04-143.61c-0.37-1.21-1.39-1.31-2.39-1.1
			c-1.49,0.31-2.39,1.27-2.04,2.82c0.3,1.33,1.16,2.33,2.57,2.54C134.13-139.5,135.4-142.42,135.04-143.61z"/>
		<path class="st1" d="M89.34-42.73c-1.17-0.01-1.81,0.63-1.85,1.79c-0.05,1.64,1.05,2.37,2.42,2.57c0.99,0.14,1.33-0.72,1.4-2.19
			C91.26-41.34,91.22-42.71,89.34-42.73z"/>
		<path class="st1" d="M89.44-86.46c-1.48-0.09-2.55,1.04-2.65,2.4c-0.13,1.7,1.3,2.1,2.71,2.07c1.23-0.02,2.24-0.48,2.48-1.92
			C91.71-85.32,90.85-86.38,89.44-86.46z"/>
		<path class="st1" d="M89.57-71.78c-1.48,0.02-2.19,0.78-2.11,2.15c0.07,1.22,0.54,2.42,1.97,2.32c1.41-0.1,2.46-1.12,2.48-2.57
			C91.93-71.29,90.73-71.67,89.57-71.78z"/>
		<path class="st1" d="M96.53-16.52c1.11,0,2.51-1.9,2.46-3.32c-0.04-0.96-0.63-1.54-1.52-1.67c-1.51-0.22-2.99,1.13-2.99,2.63
			C94.47-17.46,95.32-16.81,96.53-16.52z"/>
		<path class="st1" d="M96.89-45.44c1.85,0.21,1.42-1.75,1.97-2.72c0.17-1.46-0.8-1.65-1.82-1.68c-1.17-0.03-2.44,0.05-2.43,1.63
			C94.62-46.77,95.59-45.59,96.89-45.44z"/>
		<path class="st1" d="M96.13-132.33c1.55,0.21,2.49-0.98,2.77-2.26c0.3-1.39-0.85-2.02-2.09-2.17c-1.31-0.15-2.24,0.35-2.37,1.89
			C94.45-133.7,94.77-132.51,96.13-132.33z"/>
		<path class="st1" d="M89.98-100.73c-1.41-0.22-2.94,0-3.16,1.6c-0.24,1.72,1.16,2.68,2.71,3c1.32,0.28,2.18-0.52,2.67-2.1
			C92.17-99.44,91.54-100.49,89.98-100.73z"/>
		<path class="st1" d="M96.02-32.03c1.32,0.13,2.19-0.44,2.2-1.91c0.01-0.92-0.43-1.51-1.36-1.74c-1.27,0.08-2.12,0.7-2.25,2.04
			C94.51-32.65,95.15-32.11,96.02-32.03z"/>
		<path class="st1" d="M82.05-49.8c-1.25,0.09-2.45,0.63-2.27,2.07c0.17,1.4,1.21,2.29,2.77,2.51c1.38-0.5,2.16-1.64,2.11-3.01
			C84.61-49.74,83.24-49.88,82.05-49.8z"/>
		<path class="st1" d="M82.58-21.43c-1.46-0.22-2.04,0.94-2.13,2.17c-0.11,1.39,0.18,2.84,1.9,2.91c1.44,0.06,1.79-1.19,1.92-2.39
			C84.26-20.02,83.94-21.22,82.58-21.43z"/>
		<path class="st1" d="M82.47-64.61c-1.17-0.24-1.91,0.35-2.01,1.57c-0.1,1.27,0.27,2.48,1.6,2.71c1.56,0.27,2.3-0.99,2.95-2.34
			C84.69-63.94,83.6-64.38,82.47-64.61z"/>
		<path class="st1" d="M89.39-13.75c-1.39-0.08-2.24,0.74-2.36,2c-0.14,1.58,1.05,2.34,2.41,2.6c1.26,0.24,1.7-0.68,1.84-1.85
			C91.32-12.32,91.23-13.64,89.39-13.75z"/>
		<path class="st1" d="M88.92-139.38c1.8,0.41,2.55-1.09,3.18-2.4c0.24-1.58-0.77-2.19-1.9-2.58c-1.31-0.46-3.23,0.69-3.42,2.06
			C86.55-140.7,87.62-139.67,88.92-139.38z"/>
		<path class="st1" d="M89.42-28.72c-1.52-0.04-2.01,0.94-2.02,2.26c0,1.26,0.32,2.36,1.87,2.41c1.54,0.05,1.96-0.96,2.02-2.27
			C91.27-27.58,90.97-28.67,89.42-28.72z"/>
		<path class="st1" d="M104.59-13.74c-1.77-0.1-2.27,1.02-2.2,2.54c0.05,1.03,0.3,2.15,1.6,1.99c1.6-0.2,1.83-1.66,2.12-2.81
			C106.09-13.16,105.5-13.69,104.59-13.74z"/>
		<path class="st1" d="M96.7-6.78c-1.31-0.09-2.21,0.48-2.22,1.93c-0.01,1.47,0.61,2.63,2.16,2.71c1.64,0.08,2.02-1.3,2.35-2.57
			C98.86-6.13,97.93-6.69,96.7-6.78z"/>
		<path class="st1" d="M103.8-28.61c-1.5,0.21-1.48,1.53-1.39,2.71c0.09,1.1,0.59,1.94,1.84,1.74c1.33-0.21,1.9-1.13,1.88-2.49
			C105.9-27.92,105.11-28.79,103.8-28.61z"/>
		<path class="st1" d="M104.08-71.62c-1.29-0.06-1.64,0.88-1.68,1.94c-0.04,1.18,0,2.47,1.59,2.52c1.36,0.05,2.01-0.91,2.2-2.18
			C106.04-70.62,105.45-71.55,104.08-71.62z"/>
		<path class="st1" d="M104.05-114.83c-1.18-0.03-2.47,0.08-2.43,1.65c0.03,1.3,0.45,2.8,2.05,2.82c1.34,0.01,2.44-0.82,2.56-2.37
			C106.2-114.21,105.36-114.8,104.05-114.83z"/>
		<path class="st1" d="M108.8-19.05c-0.16,1.45,1,1.95,2.21,2.04c1.31,0.1,2.21-0.48,2.17-1.96c-0.03-1.19-0.71-1.74-1.88-1.82
			C110.1-20.77,108.95-20.41,108.8-19.05z"/>
		<path class="st1" d="M111.02-6.77c-1.44,0.13-2.52,0.87-2.42,2.46c0.09,1.36,1.3,1.92,2.41,2.02c1.66,0.15,2.15-1.1,2.24-2.46
			C113.18-6.26,112.35-6.9,111.02-6.77z"/>
		<path class="st1" d="M82.76-6.71c-1.32-0.2-2.24,0.35-2.29,1.82c-0.05,1.25,0.39,2.22,1.95,2.67c1.07-0.25,1.74-1.06,1.82-2.32
			C84.31-5.62,83.93-6.53,82.76-6.71z"/>
		<path class="st1" d="M103.91-57.66c-1.53,0.29-1.6,1.47-1.53,2.62c0.07,1.11,0.1,2.6,1.68,2.37c1.39-0.2,2.16-1.44,2.07-2.88
			C106.06-56.84,105.21-57.56,103.91-57.66z"/>
		<path class="st1" d="M106.13-41.06c-0.09-1.38-0.9-1.76-1.99-1.71c-1.49,0.07-2.53,0.83-2.58,2.36c-0.04,1.27,0.72,2.26,2.05,2.27
			C105.52-38.14,105.76-39.76,106.13-41.06z"/>
		<path class="st1" d="M97.09-93.66c-1.64-0.15-2.45,0.88-2.61,2.37c-0.15,1.34,0.44,2.27,1.94,2.28c1.53,0.01,2.49-0.73,2.76-2.27
			C99.07-92.62,98.44-93.54,97.09-93.66z"/>
		<path class="st1" d="M96.76-64.69c-1.3,0.06-2.14,0.87-2.2,2.19c-0.06,1.3,0.63,2.25,1.96,2.37c1.73,0.16,2.06-1.26,2.53-2.66
			C98.81-63.95,98.1-64.76,96.76-64.69z"/>
		<path class="st1" d="M96.77-78.85c-1.67,0.06-2.47,0.87-2.28,2.5c0.12,1.03,0.6,2.05,1.73,2.02c1.68-0.04,2.69-1.22,2.84-2.79
			C99.22-78.71,97.88-78.79,96.77-78.85z"/>
		<path class="st1" d="M104.32-86.39c-1.5-0.01-2.45,1.07-2.55,2.52c-0.08,1.18,0.91,1.76,1.98,1.79c1.34,0.03,2.18-0.67,2.26-2.3
			C105.57-85.04,105.52-86.38,104.32-86.39z"/>
		<path class="st1" d="M103.78-96.02c1.48-0.17,2.39-1,2.36-2.66c-0.33-1.5-1.35-2.16-2.85-2.06c-1.81,0.12-1.97,1.44-1.86,2.85
			C101.55-96.46,102.45-95.87,103.78-96.02z"/>
		<path class="st1" d="M60.77-28.61c-1.57,0.01-2.29,1.08-2.31,2.57c-0.02,1.39,0.75,2.13,2.14,1.99c1.48-0.15,1.71-1.26,1.71-2.48
			C62.26-27.58,62-28.62,60.77-28.61z"/>
		<path class="st1" d="M53.01-6.78c-1.23,0.08-2.41,0.65-2.23,2.07c0.17,1.38,1.2,2.27,2.66,2.5c1.35-0.43,2.52-1.21,2.47-2.68
			C55.84-6.58,54.39-6.88,53.01-6.78z"/>
		<path class="st1" d="M53.25-64.61c-1.23-0.23-1.76,0.65-1.83,1.75c-0.09,1.39,0.04,2.71,1.87,2.83c1.39,0.09,2.07-0.75,2.42-2.05
			C55.64-63.59,54.61-64.36,53.25-64.61z"/>
		<path class="st1" d="M50.79-19.04c-0.11,1.43,1.01,1.95,2.23,2.03c1.33,0.09,2.21-0.5,2.16-1.98c-0.04-1.2-0.74-1.73-2.21-1.82
			C52.14-20.67,50.9-20.46,50.79-19.04z"/>
		<path class="st1" d="M53.17-79.61c-1.24-0.2-1.68,0.75-1.75,1.82c-0.09,1.41,0.12,2.68,1.92,2.78c1.24,0.07,2.23-0.37,2.65-1.81
			C55.74-78.35,54.73-79.35,53.17-79.61z"/>
		<path class="st1" d="M60.93-67.18c1.23-0.11,1.34-1.22,1.39-2.23c-0.05-1.24-0.38-2.28-1.88-2.33c-1.46-0.05-2.07,0.83-1.96,2.16
			C58.59-68.12,59.33-67.03,60.93-67.18z"/>
		<path class="st1" d="M53.56-122.62c-1.56,0.17-2.13,1.32-2.08,2.77c0.05,1.46,1,1.96,2.29,1.83c1.23-0.12,2.14-0.71,2.23-2.33
			C55.5-121.27,55.3-122.8,53.56-122.62z"/>
		<path class="st1" d="M82.13-31.17c1.58-0.18,2.08-1.33,2.1-2.65c-0.1-1.27-0.7-1.93-1.87-1.9c-1.8,0.05-2.03,1.3-1.95,2.71
			C80.48-31.96,80.88-31.03,82.13-31.17z"/>
		<path class="st1" d="M113.23-33.46c0.02-1.15-0.29-2.08-1.48-2.24c-1.68-0.23-2.36,0.75-2.37,2.29c0,1,0.16,2.11,1.36,2.24
			C112.36-31,113.01-32.11,113.23-33.46z"/>
		<path class="st1" d="M53.55-107.77c-1.43-0.06-2.16,0.72-2.08,2.12c0.06,1.24,0.53,2.4,1.98,2.35c1.25-0.05,2.02-0.97,2.33-2.19
			C55.49-106.73,54.94-107.71,53.55-107.77z"/>
		<path class="st1" d="M53.13-93.71c-1.53,0.14-1.76,1.29-1.72,2.54c0.05,1.37,0.68,2.18,2.13,2.13c1.53-0.23,1.78-1.32,1.74-2.57
			C55.23-92.98,54.6-93.85,53.13-93.71z"/>
		<path class="st1" d="M52.87-146.45c1.34-0.28,2.8-0.68,3.02-2.12c0.27-1.7-1.06-2.71-2.56-3.05c-1.71-0.38-2.34,1.05-2.57,2.31
			C50.48-147.81,51.55-146.95,52.87-146.45z"/>
		<path class="st1" d="M53.45-45.34c1.4-0.1,1.74-1.27,1.79-2.48c-0.07-1.14-0.56-1.89-1.76-1.93c-1.46-0.06-2.09,0.79-2.02,2.13
			C51.54-46.4,52.01-45.24,53.45-45.34z"/>
		<path class="st1" d="M51.47-33.61c0.1,1.47,0.83,2.41,2.39,2.5c1.47-0.41,1.5-1.55,1.41-2.72c-0.1-1.4-0.92-2.05-2.27-1.88
			C51.83-35.57,51.39-34.69,51.47-33.61z"/>
		<path class="st1" d="M53.25-132.34c1.44,0.09,1.82-1.09,2-2.28c-0.03-1.36-0.62-2.19-2.06-2.12c-1.19,0.06-1.73,0.8-1.73,1.93
			C51.46-133.57,51.86-132.42,53.25-132.34z"/>
		<path class="st1" d="M60.3-13.75c-1.25,0.09-1.84,0.76-1.83,1.92c0.01,1.65,1.18,2.39,2.54,2.44c1.31,0.04,1.31-1.21,1.29-2.19
			C62.27-12.89,61.7-13.77,60.3-13.75z"/>
		<path class="st1" d="M75.4-42.77c-1.47,0-2.06,0.9-1.95,2.23c0.1,1.23,0.65,2.19,2.1,2.29c1.27-0.49,2.43-1.24,2.35-2.74
			C77.82-42.37,76.65-42.77,75.4-42.77z"/>
		<path class="st1" d="M74.84-13.65c-1.25,0.08-1.52,1.15-1.39,2.2c0.15,1.25,0.75,2.34,2.19,2.11c1.08-0.17,1.56-1.12,1.52-2.29
			C76.95-12.89,76.17-13.73,74.84-13.65z"/>
		<path class="st1" d="M82-118c1.38,0.11,2.21-0.59,2.28-2.02c0.05-1.21,0.01-2.38-1.51-2.63c-1.56-0.1-3.32,1.31-3.18,2.55
			C79.75-118.71,80.74-118.11,82-118z"/>
		<path class="st1" d="M75.38-28.62c-1.31,0.23-2.57,0.71-2.82,2.26c-0.2,1.24,1.25,2.49,2.57,2.25c1.55-0.28,2.08-1.38,2.12-3.09
			C77.07-27.99,76.62-28.84,75.38-28.62z"/>
		<path class="st1" d="M82.8-93.68c-1.43,0.12-2.62,0.9-2.89,2.24c-0.35,1.78,1.3,2.05,2.53,2.28c1.23,0.23,1.75-0.68,1.82-1.78
			C84.35-92.12,84.35-93.3,82.8-93.68z"/>
		<path class="st1" d="M82.35-103.32c1.41,0.02,1.84-1.17,1.88-2.4c0.04-1.42-0.75-2.07-2.44-2.07c-0.83,0.25-2.13,0.52-2.01,1.99
			C79.89-104.39,80.89-103.34,82.35-103.32z"/>
		<path class="st1" d="M80.47-76.89c-0.04,1.25,0.36,2.39,1.71,2.55c1.46,0.17,1.86-1.02,2.07-2.16c-0.01-1.37-0.48-2.28-1.98-2.24
			C81.09-78.71,80.5-78.03,80.47-76.89z"/>
		<path class="st1" d="M60.6-38.13c1.27-0.06,1.64-0.9,1.68-1.96c0.06-1.42-0.21-2.65-2.01-2.64c-1.17,0.01-1.76,0.71-1.79,1.84
			C58.45-39.42,59.06-38.41,60.6-38.13z"/>
		<path class="st1" d="M60.4-86.47c-1.4-0.02-1.87,1.11-1.94,2.33c-0.07,1.35,0.6,2.13,2.04,2.15c1.43-0.09,2.6-0.74,2.59-2.28
			C63.09-85.85,61.76-86.45,60.4-86.47z"/>
		<path class="st1" d="M67.75-6.71c-1.1,0.16-2.01,0.69-2.13,2.05c-0.09,0.98,0.52,1.53,1.4,1.62c1.32,0.13,2.19-0.43,2.21-1.9
			C69.23-5.85,68.8-6.45,67.75-6.71z"/>
		<path class="st1" d="M75.08-96.11c1.32-0.11,2.1-1.01,2.07-2.28c-0.04-1.51-0.98-2.32-2.54-2.32c-1.3,0.23-2.11,1.04-2.06,2.31
			C72.6-96.9,73.51-95.98,75.08-96.11z"/>
		<path class="st1" d="M60.63-57.61c-1.37,0.02-2.1,0.97-2.08,2.25c0.02,1.28,0.77,2.19,2.14,2.21c1.28,0.02,1.54-0.97,1.65-2.32
			C62.18-56.28,62.29-57.64,60.63-57.61z"/>
		<path class="st1" d="M67.6-35.67c-1.32,0.1-2.06,1.02-2.06,2.28c0,1.27,0.74,2.17,2.06,2.28c1.57,0.13,2.35-0.81,2.58-2.28
			C69.97-34.88,69.17-35.79,67.6-35.67z"/>
		<path class="st1" d="M67.49-21.54c-1.35,0.13-1.96,1-1.95,2.27c0.01,1.39,1.73,3.22,2.72,2.88c1.48-0.5,1.53-2.03,1.61-3.21
			C69.97-20.98,68.63-21.26,67.49-21.54z"/>
		<path class="st1" d="M133.3-110.35c1.41-0.52,1.83-1.76,1.77-3.11c-0.04-0.93-0.85-1.33-1.78-1.29c-1.53,0.06-1.96,1.04-1.83,2.35
			C131.57-111.37,132-110.5,133.3-110.35z"/>
		<path class="st1" d="M153.28-35.76c-1.46,0.07-1.94,1.04-1.81,2.33c0.12,1.24,0.75,2.3,2.13,2.13c1.3-0.15,2.52-0.72,2.53-2.42
			C155.76-35.2,154.75-35.83,153.28-35.76z"/>
		<path class="st1" d="M146.05-57.6c-1.27-0.11-1.59,0.9-1.64,1.94c-0.07,1.45,0.31,2.63,2.06,2.65c1.24,0.01,2.21-0.46,2.51-1.9
			C148.62-56.42,147.67-57.46,146.05-57.6z"/>
		<path class="st1" d="M153.41-147c1.25,0,2.42-0.41,2.5-1.79c0.09-1.5-1.08-2.25-2.36-2.74c-1.45,0.1-2.01,1.04-2.1,2.29
			C151.36-147.92,151.93-147,153.41-147z"/>
		<path class="st1" d="M153.83-21.62c-1.58-0.05-2.3,1.04-2.36,2.52c-0.05,1.37,0.65,2.16,2.07,2.05c1.5-0.11,1.73-1.21,1.77-2.49
			C155.25-20.5,155.05-21.59,153.83-21.62z"/>
		<path class="st1" d="M151.46-47.54c0.09,1.23,0.64,2.2,2.1,2.3c1.28-0.49,2.44-1.23,2.36-2.74c-0.08-1.38-1.24-1.8-2.49-1.8
			C151.95-49.78,151.36-48.88,151.46-47.54z"/>
		<path class="st1" d="M139.02-31.16c1.37,0.02,1.99-0.94,2.18-2.24c-0.17-1.26-0.79-2.18-2.15-2.23c-1.28-0.05-1.61,0.92-1.64,1.98
			C137.37-32.47,137.42-31.18,139.02-31.16z"/>
		<path class="st1" d="M153.61-60.12c1.33-0.11,1.65-0.98,1.68-2.03c0.05-1.45-0.32-2.63-2.09-2.57c-1.17,0.04-1.72,0.78-1.72,1.91
			C151.48-61.34,152.13-60.35,153.61-60.12z"/>
		<path class="st1" d="M153.26-6.73c-1.5,0.06-1.92,1.06-1.78,2.33c0.14,1.23,0.77,2.22,2.13,2.24c1.61,0.03,1.63-1.25,1.69-2.37
			C155.23-5.87,154.73-6.79,153.26-6.73z"/>
		<path class="st1" d="M143.77-69.72c0.17,1.39,1.2,2.28,2.63,2.51c1.27-0.32,2.31-1.05,2.29-2.3c-0.03-1.5-1.05-2.4-2.65-2.26
			C144.8-71.67,143.6-71.16,143.77-69.72z"/>
		<path class="st1" d="M140.16-20.73c-1.22-0.24-2.36-0.05-2.66,1.4c-0.27,1.3,0.32,2.41,1.59,2.61c1.67,0.26,1.87-1.43,2.55-2.37
			C141.73-20.22,140.96-20.57,140.16-20.73z"/>
		<path class="st1" d="M139.65-6.74c-1.36-0.05-2.08,0.57-2.21,1.69c-0.17,1.49,0.88,2.94,2.05,2.73c1.13-0.19,1.6-1.06,1.71-2.09
			C141.33-5.7,140.91-6.65,139.65-6.74z"/>
		<path class="st1" d="M146.02-13.83c-0.78,0.13-2.07,0.3-2.24,1.72c-0.19,1.56,1.01,2.39,2.29,2.82c1.09,0.36,2.78-1.17,2.63-2.34
			C148.55-12.89,147.8-13.72,146.02-13.83z"/>
		<path class="st1" d="M146.24-38.33c1.72-0.04,2.04-1.37,1.95-2.77c-0.07-1.18-0.86-1.67-2-1.64c-1.49,0.16-1.88,1.14-1.72,2.42
			C144.61-39.29,145.1-38.31,146.24-38.33z"/>
		<path class="st1" d="M148.24-83.94c-0.03-1.2-0.36-2.37-1.75-2.49c-1.42-0.12-1.96,0.99-2.03,2.22c-0.08,1.32,0.5,2.21,1.98,2.17
			C147.63-82.08,148.16-82.78,148.24-83.94z"/>
		<path class="st1" d="M146.55-24.11c1.68-0.15,1.76-1.32,1.73-2.51c-0.03-1.05-0.34-2.06-1.62-2c-1.47,0.06-2.66,1.03-2.79,2.36
			C143.71-24.59,145.36-24.43,146.55-24.11z"/>
		<path class="st1" d="M153.7-107.79c-1.4-0.02-2.24,0.55-2.23,1.99c0.01,1.23,0.41,2.38,1.78,2.49c1.38,0.11,2.68-0.52,2.84-2.04
			C156.25-106.93,155.08-107.59,153.7-107.79z"/>
		<path class="st1" d="M146.41-139.26c1.42-0.34,1.82-1.34,1.81-2.59c-0.01-1.47-0.92-2.05-2.25-1.93c-1.23,0.11-2.4,0.68-2.2,2.09
			C143.97-140.34,144.97-139.42,146.41-139.26z"/>
		<path class="st1" d="M139.5-132.31c1.12-0.2,1.6-1.06,1.7-2.1c0.13-1.29-0.3-2.25-1.55-2.33c-1.36-0.05-2.07,0.57-2.2,1.7
			C137.27-133.54,138.33-132.1,139.5-132.31z"/>
		<path class="st1" d="M146.09-96.14c1.59-0.13,2.58-1.21,2.89-2.77c-0.42-1.66-1.65-1.99-3.02-1.87c-1.21,0.11-2.34,0.67-2.21,2.08
			C143.88-97.39,144.44-96,146.09-96.14z"/>
		<path class="st1" d="M139.41-147.11c0.89-0.29,1.77-0.97,1.75-2.32c-0.02-1.07-0.56-2.01-1.72-2.03
			c-1.45-0.03-1.92,1.09-1.99,2.33C137.38-148.03,137.75-147.16,139.41-147.11z"/>
		<path class="st1" d="M138.91-118.1c1.43-0.12,2.63-0.92,2.87-2.26c0.33-1.77-1.31-2.04-2.56-2.25c-1.24-0.2-1.74,0.7-1.81,1.8
			C137.32-119.62,137.36-118.45,138.91-118.1z"/>
		<path class="st1" d="M132.65-144.71c-1.49,0.31-2.39,1.27-2.04,2.82c0.3,1.33,1.16,2.33,2.57,2.54c0.96-0.16,2.23-3.08,1.87-4.26
			C134.67-144.82,133.65-144.92,132.65-144.71z"/>
		<path class="st1" d="M132.5-129.76c-1.47-0.03-2.14,0.83-2.02,2.21c0.12,1.49,0.92,2.53,2.54,2.45c1.35-0.07,2.02-0.99,2.18-2.3
			C134.97-128.97,134.03-129.74,132.5-129.76z"/>
		<path class="st1" d="M153.28-89c1.37,0.05,2.82-1.43,2.68-2.85c-0.13-1.4-1.11-1.84-2.45-1.86c-1.16,0.37-2.73,0.55-2.69,2.2
			C150.86-90.18,151.67-89.06,153.28-89z"/>
		<path class="st1" d="M153.6-132.52c1.35-0.04,1.97-1.02,2.4-2.1c0.12-1.07-0.96-2.11-2.27-2.17c-1.07-0.05-1.97,0.27-2.23,1.47
			C151.2-134.02,152.33-132.47,153.6-132.52z"/>
		<path class="st1" d="M153.56-118c1.22-0.03,2.21-0.52,2.45-2.21c-0.58-1.15-1.36-2.4-3.06-2.41c-1.25-0.01-1.52,1.02-1.56,2.06
			C151.34-119.07,151.84-117.96,153.56-118z"/>
		<path class="st1" d="M153.55-74.48c1.51-0.2,2.38-1.18,2.52-2.58c0.16-1.63-1.16-1.79-2.35-1.78c-1.37,0.01-2.87,0.24-2.92,1.95
			C150.75-75.27,152.27-74.92,153.55-74.48z"/>
		<path class="st1" d="M146.75-154.16c1.24,0.02,1.49-1.02,1.54-2.05c0.01-1.22-0.21-2.34-1.68-2.5c-1.38-0.15-2.16,0.56-2.14,1.96
			C144.49-155.27,145.17-154.18,146.75-154.16z"/>
		<path class="st1" d="M110.72-50.66c-1.31,0.01-2.01,0.91-2.23,2.29c0.15,1.65,1.32,2.5,2.84,2.76c1.58,0.28,1.89-0.98,1.91-2.17
			C113.28-49.44,112.56-50.67,110.72-50.66z"/>
		<path class="st1" d="M144.48-112.83c0.01,1.38,0.84,2.18,2.11,2.26c1.27,0.08,1.51-1,1.67-2.01c-0.01-1.35-0.55-2.23-2.04-2.17
			C145.03-114.7,144.47-113.98,144.48-112.83z"/>
		<path class="st1" d="M146.57-129.71c-1.47-0.14-2.11,0.73-2.16,2.1c-0.04,1.25,0.19,2.4,1.71,2.55c1.47,0.14,2.08-0.74,2.16-2.1
			C148.31-128.42,148.1-129.57,146.57-129.71z"/>
		<path class="st1" d="M118.62-71.79c-1.39-0.04-2.84,0.27-2.83,1.97c0.01,1.41,1.1,2.5,2.53,2.52c1.46,0.03,2.26-1.11,2.72-2.68
			C120.72-71.08,119.9-71.76,118.62-71.79z"/>
		<path class="st1" d="M125.73-89.13c1.58-0.01,2.18-1.34,2.2-2.7c0.02-1.41-1.12-1.81-2.27-1.96c-1.41,0-2.21,0.61-2.18,2.03
			C123.5-90.28,124.18-89.12,125.73-89.13z"/>
		<path class="st1" d="M124.84-117.49c1.72-0.17,2.67-1.26,3.06-2.8c0.36-1.43-0.5-2.22-1.81-2.36c-1.62-0.17-2.43,0.86-2.62,2.33
			C123.31-119.14,123.48-118,124.84-117.49z"/>
		<path class="st1" d="M125.61-103.21c1.05-0.45,2.24-1.12,2.32-2.59c0.07-1.43-1.09-1.91-2.32-1.98c-1.38-0.08-2.17,0.63-2.13,2.05
			C123.5-104.49,123.95-103.5,125.61-103.21z"/>
		<path class="st1" d="M125.47-74.33c1.59-0.21,2.63-1.4,2.61-3.05c-0.02-1.22-1.12-1.43-2.15-1.46c-1.57-0.06-2.58,0.58-2.47,2.26
			C123.53-75.37,124.06-74.14,125.47-74.33z"/>
		<path class="st1" d="M125.65-60.16c1.28,0.05,1.6-0.92,1.64-1.97c0.04-1.18-0.03-2.35-1.87-2.55c-0.99,0.27-1.89,0.95-1.87,2.27
			C123.56-61.12,124.29-60.22,125.65-60.16z"/>
		<path class="st1" d="M125.44-45.34c1.76-0.2,2.27-1.82,2.41-3.29c0.09-1.01-0.95-1.16-1.79-1.22c-1.52-0.05-2.65,0.45-2.59,2.19
			C123.52-46.43,124-45.17,125.44-45.34z"/>
		<path class="st1" d="M111.5-78.74c-1.45-0.05-2.11,0.75-2.04,2.11c0.06,1.22,0.53,2.37,1.97,2.3c1.41-0.07,1.75-1.24,1.83-2.8
			C113.09-77.84,112.74-78.7,111.5-78.74z"/>
		<path class="st1" d="M111.29-93.72c-1.55,0.04-1.9,1.11-1.89,2.38c0.01,1.3,0.46,2.31,1.99,2.28c1.56-0.03,1.86-1.11,1.9-2.38
			C113.23-92.73,112.83-93.75,111.29-93.72z"/>
		<path class="st1" d="M118.01-52.94c1.65-0.03,2.31-0.96,2.28-2.51c-0.04-1.27-0.45-2.27-1.93-2.3c-1.75-0.03-2.78,0.88-2.87,2.62
			C115.39-53.41,116.51-52.91,118.01-52.94z"/>
		<path class="st1" d="M125.69-6.78c-1.32-0.07-2.21,0.49-2.21,1.94c-0.01,1.47,0.62,2.63,2.17,2.7c1.64,0.07,2.02-1.3,2.4-2.81
			C127.75-6.03,126.96-6.71,125.69-6.78z"/>
		<path class="st1" d="M118.24-42.73c-1.21,0.05-1.77,0.78-1.74,1.95c0.03,1.24,0.77,1.75,2.14,1.75c0.97-0.14,1.6-0.77,1.55-1.96
			C120.13-42.2,119.42-42.78,118.24-42.73z"/>
		<path class="st1" d="M118.07-13.79c-1.14,0.15-2.39,0.52-2.27,1.93c0.13,1.61,1.32,2.63,2.95,2.7c1.25,0.05,1.51-1.02,1.55-2.05
			C120.35-12.71,119.86-13.77,118.07-13.79z"/>
		<path class="st1" d="M118.24-28.72c-1.18,0.03-1.76,0.74-1.76,1.87c-0.01,1.46,0.59,2.58,2.17,2.69c1.27,0.09,1.56-0.91,1.67-2.2
			C120.27-27.5,120.06-28.77,118.24-28.72z"/>
		<path class="st1" d="M132.66-24.15c1.29,0.04,1.57-0.93,1.66-2c-0.03-1.16-0.04-2.45-1.65-2.46c-1.37-0.01-2.12,0.96-2.12,2.23
			C130.53-25.1,131.29-24.2,132.66-24.15z"/>
		<path class="st1" d="M137.4-91.13c0.02,1.06,0.34,1.95,2,2.02c0.89-0.26,1.79-0.94,1.76-2.27c-0.03-1.28-0.77-2.24-2.13-2.22
			C137.42-93.6,137.37-92.31,137.4-91.13z"/>
		<path class="st1" d="M60.44-139.34c1.4-0.08,1.75-1.25,1.81-2.46c-0.04-1.15-0.55-1.89-1.74-1.95c-1.45-0.07-2.11,0.75-2.04,2.11
			C58.54-140.42,59-139.26,60.44-139.34z"/>
		<path class="st1" d="M133.03-100.66c-1.61,0.18-1.68,1.35-1.64,2.54c0.04,1.05,0.37,2.02,1.66,1.97c1.37-0.06,2.1-0.98,2.09-2.26
			C135.14-99.72,134.35-100.51,133.03-100.66z"/>
		<path class="st1" d="M139.44-104.04c1.24-0.03,1.76-0.76,1.76-2.14c-0.14-0.97-0.76-1.61-1.96-1.55
			c-1.21,0.06-1.79,0.77-1.74,1.95C137.54-104.57,138.27-104.01,139.44-104.04z"/>
		<path class="st1" d="M133.36-42.74c-1.51-0.01-1.97,0.98-1.98,2.27c-0.01,1.02,0.12,2,1.39,2.33c1.62-0.18,2.06-1.46,2.29-2.76
			C135.28-42.11,134.55-42.73,133.36-42.74z"/>
		<path class="st1" d="M138.87-60.11c1.56-0.13,2.27-1.09,2.34-2.57c0.05-1.09-0.42-1.92-1.59-2.05c-1.38-0.15-2.14,0.56-2.22,1.94
			C137.34-61.6,137.39-60.46,138.87-60.11z"/>
		<path class="st1" d="M139.23-78.75c-1.18,0.05-1.75,0.75-1.77,1.89c-0.02,1.25,0.38,2.39,1.75,2.52c1.46,0.13,1.84-1.06,2.04-2.2
			C141.24-77.93,140.7-78.8,139.23-78.75z"/>
		<path class="st1" d="M131.4-55.67c-0.02,1.17-0.05,2.56,1.63,2.46c1.39-0.09,1.82-1.35,1.92-2.53c0.1-1.19-0.75-1.74-1.8-1.91
			C131.78-57.63,131.42-56.75,131.4-55.67z"/>
		<path class="st1" d="M133.65-71.73c-1.38-0.14-2.23,0.53-2.19,1.98c0.03,1.23,0.43,2.5,1.9,2.32c1.32-0.16,1.53-1.53,1.68-2.21
			C135.17-71.14,134.54-71.64,133.65-71.73z"/>
		<path class="st1" d="M138.95-49.72c-1.13,0.15-1.58,1.01-1.46,2.09c0.12,1.15,0.87,1.63,2.2,1.58c0.9-0.13,1.53-0.73,1.5-1.87
			C141.16-49.37,140.23-49.89,138.95-49.72z"/>
		<path class="st1" d="M125.47-35.77c-1.48-0.02-2.11,0.86-1.99,2.23c0.13,1.49,0.93,2.52,2.55,2.43c1.36-0.08,2.01-1,2.15-2.32
			C127.94-34.97,127-35.74,125.47-35.77z"/>
		<path class="st1" d="M127.19-19.01c-0.05-1.23-0.78-1.75-2.25-1.74c-0.86,0.16-1.5,0.79-1.44,1.98c0.06,1.22,0.8,1.77,1.96,1.72
			C126.68-17.1,127.24-17.84,127.19-19.01z"/>
		<path class="st1" d="M132.65-13.65c-1.33,0.02-2.16,0.95-2.08,2.28c0.09,1.38,1.29,1.9,2.43,2.08c1.14,0.19,1.85-0.49,1.99-1.73
			C134.7-12.29,134.33-13.67,132.65-13.65z"/>
		<path class="st1" d="M133.32-86.6c-1.23-0.19-1.83,0.56-1.91,1.71c-0.08,1.17-0.15,2.56,1.4,2.7c1.43,0.13,1.77-1.23,2.17-2.3
			C135.02-85.67,134.43-86.42,133.32-86.6z"/>
		<path class="st1" d="M89.88-53.15c1.22-0.06,1.44-1.2,1.42-2.23c-0.02-1.23-0.27-2.47-1.89-2.22c-1.38,0.21-2.31,1.14-2.65,2.61
			C87.3-53.55,88.56-53.08,89.88-53.15z"/>
		<path class="st1" d="M12.07-33.36c0.12-1.31-0.68-2.19-2.01-2.31c-1.32-0.12-2.26,0.55-2.42,1.87c-0.2,1.62,1.02,1.79,1.69,1.84
			C10.92-31.93,11.97-32.15,12.07-33.36z"/>
		<path class="st1" d="M10.36-6.74c-1.17,0-1.85,0.62-1.89,1.79c-0.05,1.24,0.29,2.5,1.7,2.53c1.43,0.03,1.57-1.42,1.94-2.46
			C12.18-6.15,11.55-6.74,10.36-6.74z"/>
		<path class="st1" d="M10.89-20.7c-1.3-0.25-2.26,0.16-2.4,1.63c-0.08,0.86,0.16,1.68,1.11,1.88c1.36,0.29,2.1-0.49,2.48-1.72
			C12.18-19.84,11.83-20.52,10.89-20.7z"/>
		<path class="st1" d="M10.03-49.64c-1.3-0.04-1.65,0.93-1.58,2c0.08,1.24,0.55,2.36,2.01,2.32c1.17-0.04,1.61-0.98,1.73-2.06
			C12.03-48.67,11.41-49.6,10.03-49.64z"/>
		<path class="st1" d="M9.79-132.12c1.33-0.05,2.19-0.72,2.34-2.04c0.15-1.33-0.54-2.23-1.86-2.45c-1.25-0.21-1.77,0.62-1.86,1.72
			C8.32-133.72,8.32-132.54,9.79-132.12z"/>
		<path class="st1" d="M9.71-93.69c-1.52,0.16-2.37,1.15-2.1,2.72c0.22,1.3,1.16,2.03,2.47,1.86c1.39-0.18,2.39-0.96,2.67-2.65
			C12.01-92.74,11.21-93.85,9.71-93.69z"/>
		<path class="st1" d="M9.05-118.01c1.62,0.25,3.13-0.87,3.13-2.36c0-1.08-0.54-1.87-1.8-2.16c-1.52,0.29-2.51,1.27-2.76,2.88
			C7.46-118.67,8.15-118.15,9.05-118.01z"/>
		<path class="st1" d="M2.78-13.77c-1.04-0.13-2.14,0.18-2.16,1.38c-0.03,1.51,0.5,3.04,2.26,3.26c1.27,0.15,2.06-0.77,2.28-2.06
			C5.14-12.78,4.24-13.59,2.78-13.77z"/>
		<path class="st1" d="M9.41-75.02c1.49,0.01,2.46-0.66,2.7-2.23c-0.15-1.19-0.97-1.56-2.03-1.59c-1.44-0.04-2.63,0.32-2.58,2.09
			C7.55-75.57,8.3-75.02,9.41-75.02z"/>
		<path class="st1" d="M2.25-38.33c1.5,0.08,2.49-1.02,2.67-2.38c0.19-1.42-1.01-1.88-2.17-2.09c-1.4-0.02-2.29,0.5-2.29,1.97
			C0.46-39.59,0.86-38.4,2.25-38.33z"/>
		<path class="st1" d="M3.07-154.08c1.32-0.23,2.14-1.04,2.07-2.36c-0.08-1.57-1.15-2.31-2.69-2.32c-1.49-0.01-2.11,0.9-1.98,2.25
			C0.61-155.02,1.42-154.08,3.07-154.08z"/>
		<path class="st1" d="M2.42-53.01c1.46,0,2.66-0.65,2.67-2.19c0.01-1.87-1.62-2.14-2.95-2.47c-1.64,0.17-1.77,1.29-1.74,2.48
			C0.43-53.89,1-53.01,2.42-53.01z"/>
		<path class="st1" d="M2.72-24.12c1.62-0.05,2.01-1.39,2.31-2.92c-0.43-1.01-1.12-1.84-2.49-1.62c-1.31,0.2-2.05,1.07-2,2.37
			C0.59-24.99,1.42-24.07,2.72-24.12z"/>
		<path class="st1" d="M10.04-60.11c1.36-0.09,2.01-1.01,2.14-2.34c-0.24-1.54-1.18-2.32-2.72-2.33c-1.48-0.01-2.13,0.88-1.99,2.24
			C7.61-61.04,8.41-60,10.04-60.11z"/>
		<path class="st1" d="M7.62-106.34c-0.09,1.31,0.42,2.54,1.85,3.05c1.44-0.21,2.57-0.79,2.73-2.33c0.15-1.37-0.62-2.12-1.99-2.19
			C9.04-107.88,7.73-107.85,7.62-106.34z"/>
		<path class="st1" d="M17.6-57.49c-1.33-0.1-2.88,0.36-2.79,1.99c0.08,1.4,0.76,2.87,2.51,3.25c1.79-0.34,2.35-1.82,2.56-3.22
			C20.11-56.91,18.71-57.41,17.6-57.49z"/>
		<path class="st1" d="M9.52-151.67c-1.29,0.22-1.99,1.07-1.99,2.36c-0.01,1.43,1.57,2.56,3.12,2.32c1.32-0.21,1.9-1.1,2.1-2.32
			C12.65-150.54,10.84-151.89,9.52-151.67z"/>
		<path class="st1" d="M24.04-74.11c1.61-0.21,2.53-1.91,2.23-3.85c-0.17-1.1-0.73-1.92-1.91-1.63c-1.51,0.36-2.76,1.33-2.61,3.01
			C21.87-75.32,22.5-74.06,24.04-74.11z"/>
		<path class="st1" d="M24.07-6.78c-0.67,0.15-1.55,0.49-1.58,1.77C22.47-3.84,23-3.1,24.22-3.04c1.17,0.05,1.9-0.5,1.97-1.72
			C26.25-5.95,25.69-6.65,24.07-6.78z"/>
		<path class="st1" d="M24.78-60.1c1.15,0.08,1.68-0.88,1.93-1.93c0.07-1.34-1.48-2.8-2.99-2.68c-1.07,0.08-2.05,0.67-1.94,1.83
			C21.94-61.19,23.15-60.21,24.78-60.1z"/>
		<path class="st1" d="M23.89-21.38c-0.95,0.44-2.13,0.92-1.89,2.36c0.22,1.31,0.78,2.79,2.42,2.7c1.43-0.07,2.54-1.15,2.49-2.62
			C26.87-20.54,25.37-20.9,23.89-21.38z"/>
		<path class="st1" d="M24.48-49.82c-1.38,0.06-2.11,0.84-2.01,2.2c0.08,1.21,0.56,2.44,1.97,2.29c1.62-0.17,2.46-1.4,2.7-2.94
			C26.81-49.85,25.65-49.87,24.48-49.82z"/>
		<path class="st1" d="M24.62-31.16c1.61,0.03,1.63-1.25,1.7-2.53c-0.11-1.15-0.58-2.09-2.05-2.04c-1.5,0.05-1.92,1.06-1.78,2.33
			C22.62-32.17,23.26-31.18,24.62-31.16z"/>
		<path class="st1" d="M24.69-103.29c0.97-0.24,1.79-0.89,1.98-1.93c0.21-1.15-1.59-2.58-3.11-2.49c-0.95,0.2-1.78,0.66-1.81,1.83
			C21.7-104.59,23.48-102.99,24.69-103.29z"/>
		<path class="st1" d="M2.53-139.34c1.14,0.14,2.83-1.96,2.57-3.14c-0.27-1.23-1.29-1.34-2.32-1.37c-1.55,0.03-2.42,0.73-2.19,1.97
			C0.81-140.77,1.11-139.52,2.53-139.34z"/>
		<path class="st1" d="M17.19-13.75c-1.49,0.16-1.87,1.13-1.71,2.42c0.13,1.03,0.62,2.02,1.76,1.99c1.71-0.04,2.06-1.36,1.96-2.77
			C19.12-13.28,18.33-13.77,17.19-13.75z"/>
		<path class="st1" d="M17.27-139.26c1.33-0.1,1.88-1.05,1.98-2.27c0.15-1.82-1.03-2.68-2.59-2.95c-1.11-0.19-1.83,0.57-2.06,1.63
			C14.27-141.46,15.79-139.41,17.27-139.26z"/>
		<path class="st1" d="M16.68-125.11c1.62,0.08,2.34-0.96,2.57-2.39c0.02-1.44-0.58-2.3-2.05-2.27c-1.53,0.03-2.61,0.78-2.65,2.36
			C14.51-126.1,15.33-125.18,16.68-125.11z"/>
		<path class="st1" d="M17.94-28.61c-1.68-0.13-2.85,0.96-3.15,2.48c-0.27,1.38,0.92,1.91,2.04,2.12c1.77,0.11,2.47-0.8,2.47-2.36
			C19.3-27.37,19.15-28.51,17.94-28.61z"/>
		<path class="st1" d="M17.21-39.05c1.19,0.06,1.88-0.5,2.01-2.12c-0.15-0.66-0.48-1.56-1.76-1.58c-1.16-0.02-1.91,0.51-1.97,1.73
			C15.44-39.84,16-39.11,17.21-39.05z"/>
		<path class="st1" d="M31.02-110.37c1.74,0.28,2.11-1.14,2.3-2.49c-0.01-1.2,0.08-2.6-1.44-2.74c-1.6-0.15-2.32,1.02-2.42,2.5
			C29.36-111.86,29.71-110.58,31.02-110.37z"/>
		<path class="st1" d="M39.08-147.1c1.32-0.1,1.95-1.01,2.11-2.28c-0.16-1.26-0.79-2.18-2.11-2.28c-1.57-0.13-2.54,0.78-2.54,2.28
			C36.55-147.89,37.51-146.98,39.08-147.1z"/>
		<path class="st1" d="M33.96-141.79c-0.11-1.4-1.1-1.89-2.32-1.99c-1.08-0.09-1.98,0.35-2.13,1.52c-0.18,1.35,0.43,2.22,1.88,2.26
			C32.64-139.98,33.62-140.41,33.96-141.79z"/>
		<path class="st1" d="M32.03-154.1c1.37-0.08,2.01-1.01,2.16-2.44c-0.28-1.4-1.18-2.21-2.73-2.22c-1.49-0.01-2.13,0.87-2.01,2.24
			C29.59-155.04,30.41-154.01,32.03-154.1z"/>
		<path class="st1" d="M29.47-127.53c0.13,1.49,0.95,2.44,2.83,2.45c0.98-0.31,1.92-1,1.85-2.36c-0.09-1.58-1.15-2.31-2.68-2.33
			C29.98-129.78,29.34-128.89,29.47-127.53z"/>
		<path class="st1" d="M29.47-98.77c0.02,1.53,0.75,2.61,2.33,2.68c1.31,0.05,2.23-0.74,2.32-2.1c0.11-1.63-0.95-2.34-2.36-2.59
			C30.33-100.81,29.45-100.26,29.47-98.77z"/>
		<path class="st1" d="M24.42-93.78c-1.65-0.02-2.49,1.01-2.43,2.49c0.06,1.5,1.03,2.42,2.64,2.3c1.51-0.11,2.43-0.91,2.54-2.51
			C26.91-93.05,25.92-93.76,24.42-93.78z"/>
		<path class="st1" d="M31.74-71.77c-1.35-0.12-2.27,0.46-2.27,1.96c0,1.53,0.72,2.61,2.3,2.71c1.32,0.08,2.14-0.73,2.42-2.25
			C34.09-70.73,33.26-71.63,31.74-71.77z"/>
		<path class="st1" d="M31.63-81.26c1.4-0.61,2.64-1.54,2.46-3.2c-0.16-1.5-1.5-2.18-2.87-2c-1.62,0.22-1.88,1.62-1.75,3
			C29.59-82.23,30.17-81.3,31.63-81.26z"/>
		<path class="st1" d="M44.41-98.02c0.07,1.06,0.47,1.99,1.72,1.85c1.59-0.17,2.07-1.34,2.11-2.98c-0.17-0.88-0.69-1.61-1.88-1.58
			C44.56-100.68,44.32-99.43,44.41-98.02z"/>
		<path class="st1" d="M43.98-156.43c-0.04,1.45,0.83,2.48,2.49,2.4c1.52-0.08,1.82-1.15,1.83-1.52c0.04-1.76-0.32-2.87-1.11-3.35
			h-2.17C44.24-158.41,44-157.35,43.98-156.43z"/>
		<path class="st1" d="M130.77-156.38c0.21,1.11,0.73,2.22,2.26,2.28c1.27-0.34,1.83-1.31,1.68-2.56c-0.1-0.81-0.36-1.79-0.97-2.25
			h-1.9C131.02-158.46,130.55-157.51,130.77-156.38z"/>
		<path class="st1" d="M48.23-112.93c0-1.38-0.83-2.17-2.11-2.27c-1.27-0.09-1.62,0.95-1.68,1.98c-0.07,1.34,0.52,2.2,1.91,2.2
			C47.64-111.1,48.23-111.76,48.23-112.93z"/>
		<path class="st1" d="M58.49-127.4c0.14,1.23,0.77,2.22,2.13,2.24c1.61,0.02,1.63-1.25,1.69-2.53c-0.11-1.14-0.59-2.09-2.05-2.04
			C58.77-129.67,58.35-128.67,58.49-127.4z"/>
		<path class="st1" d="M46.66-129.72c-1.71-0.16-2.29,0.88-2.27,2.41c0.01,1.03,0.25,2.11,1.45,2.16c1.58,0.07,2.24-1.04,2.39-2.42
			C48.25-128.75,47.84-129.6,46.66-129.72z"/>
		<path class="st1" d="M16.88-86.61c-1.26,0.02-1.51,1.15-1.49,2.18c0.02,1.31-0.04,2.91,1.88,2.82c1.29-0.06,2.01-1.04,2-2.49
			C19.16-85.53,18.48-86.64,16.88-86.61z"/>
		<path class="st1" d="M15.4-69.15c0.02,1.06,0.33,1.95,1.7,2.03c1.28-0.15,2.05-0.98,2.05-2.26c0-1.28-0.75-2.24-2.12-2.23
			C15.42-71.62,15.38-70.33,15.4-69.15z"/>
		<path class="st1" d="M2.83-96.07c1.7-0.43,2.26-1.79,2.25-3.3c-0.01-1.22-1.11-1.52-2.15-1.4c-1.45,0.17-2.46,0.96-2.38,2.54
			C0.63-96.91,1.5-96.23,2.83-96.07z"/>
		<path class="st1" d="M15.41-98.02c0.07,1.06,0.47,1.99,1.72,1.85c1.58-0.18,2.09-1.33,2.1-2.66c-0.11-1.27-0.71-1.94-1.88-1.91
			C15.56-100.69,15.33-99.43,15.41-98.02z"/>
		<path class="st1" d="M17.12-110.57c1.28-0.09,2.08-0.88,2.12-2.34c-0.05-1.08-0.58-1.78-1.79-1.83c-1.5-0.06-2.07,0.85-2,2.18
			C15.51-111.55,15.85-110.49,17.12-110.57z"/>
		<path class="st1" d="M2.51-110.25c1.12-0.32,2.07-1.01,2.37-2.18c0.37-1.47-0.68-2.09-1.92-2.31c-1.04-0.19-2.15-0.01-2.31,1.22
			C0.47-112.15,0.98-110.94,2.51-110.25z"/>
		<path class="st1" d="M2.76-67.06c1.33-0.12,2.25-0.77,2.36-2.12c0.13-1.64-0.91-2.44-2.39-2.59c-1.35-0.14-2.26,0.48-2.26,1.97
			C0.47-68.26,1.22-67.31,2.76-67.06z"/>
		<path class="st1" d="M3.08-86.39c-1.18-0.06-2.34,0.55-2.5,1.92c-0.15,1.35,0.67,2.12,1.9,2.33c1.42,0,1.77-0.88,1.8-1.96
			C4.33-85.08,4.41-86.32,3.08-86.39z"/>
		<path class="st1" d="M33.72-40.9c-0.02-1.56-1.07-1.88-2.32-1.88c-1.14,0-1.86,0.59-1.92,1.78c-0.07,1.48,0.48,2.71,2.07,2.84
			C33.44-38,33.3-39.72,33.72-40.9z"/>
		<path class="st1" d="M2.85-129.69c-1.51,0.04-2.39,0.98-2.27,2.54c0.1,1.31,1,2.1,2.27,2.06c1.5-0.05,2.32-0.98,2.31-2.54
			C4.92-128.92,4.11-129.72,2.85-129.69z"/>
		<path class="st1" d="M24.32-146.59c1.31-0.27,2.55-0.83,2.7-2.71c-0.65-0.96-1.24-2.36-2.81-2.15c-1.66,0.22-1.89,1.67-1.74,3.07
			C22.58-147.34,23.05-146.33,24.32-146.59z"/>
		<path class="st1" d="M31.86-23.47c1.35-0.54,1.9-1.8,2.08-3.08c0.2-1.42-0.83-2.15-2.14-2.14c-1.33,0.02-2.21,0.86-2.25,2.19
			C29.5-25.02,30.37-24.04,31.86-23.47z"/>
		<path class="st1" d="M31.51-52.58c1.72,0.13,1.99-1.5,2.37-2.68c0.45-1.41-0.47-2.1-1.71-2.43c-1.61-0.05-2.48,0.81-2.69,2.29
			C29.26-53.86,29.96-52.7,31.51-52.58z"/>
		<path class="st1" d="M17.15-154.01c1.76,0.04,2.18-1.13,2.12-3.05c-0.08-0.89-0.68-1.75-2.11-1.7c-1.51,0.05-2.59,0.82-2.59,2.37
			C14.56-154.83,15.64-154.05,17.15-154.01z"/>
		<path class="st1" d="M24.36-132.31c1.45,0,2.26-1.13,2.63-2.49c-0.19-1.44-1.18-1.94-2.41-1.99c-1.4-0.06-2.84,0.29-2.79,1.99
			C21.83-133.4,22.91-132.3,24.36-132.31z"/>
		<path class="st1" d="M45.86-139.53c1.21,0.28,2.48-1.19,2.34-2.53c-0.15-1.51-1.23-1.76-2.67-1.81c-0.8,0.11-1.9,0.25-1.94,1.52
			C43.57-140.87,44.45-139.85,45.86-139.53z"/>
		<path class="st1" d="M82.18-147.05c1.5,0.1,2.03-0.84,2.11-2.17c-0.02-1.25-0.23-2.39-1.79-2.49c-1.5-0.1-2.07,0.83-2.1,2.17
			C80.38-148.29,80.63-147.16,82.18-147.05z"/>
		<path class="st1" d="M88.84-154.12c1.29,0.24,3.42-1.25,3.26-2.31c-0.24-1.57-1.58-1.9-2.81-2.23c-1.65,0-1.88,1.1-1.89,2.31
			C87.39-155.31,87.63-154.34,88.84-154.12z"/>
		<path class="st1" d="M82.54-132.3c1.48-0.25,2.11-1.6,2.16-2.91c0.04-1.24-0.86-2.03-2.1-2.07c-1.51,0.16-2.96,1.88-2.57,3.11
			C80.4-133.01,81.26-132.08,82.54-132.3z"/>
		<path class="st1" d="M89.79-114.78c-1.37-0.14-2.86,0.13-2.98,1.75c-0.13,1.68,1.23,2.48,2.76,2.98c1.57-0.13,2.24-1.25,2.37-2.59
			C92.08-114.04,91.02-114.66,89.79-114.78z"/>
		<path class="st1" d="M75.24-71.78c-1.47,0.03-2.62,0.67-2.62,2.25c0.01,1.55,1.32,1.61,2.49,1.58c1.35-0.04,2.11-0.7,2.08-2.07
			C77.07-71.24,76.38-71.8,75.24-71.78z"/>
		<path class="st1" d="M74.79-86.63c-1.41,0.1-1.99,1.26-1.79,2.49c0.2,1.26,0.57,2.8,2.38,2.53c1.29-0.19,1.94-1.16,1.88-2.65
			C77.08-85.6,76.42-86.74,74.79-86.63z"/>
		<path class="st1" d="M75.26-57.63c-1.28-0.09-1.77,0.67-1.85,1.78c-0.09,1.18-0.08,2.5,1.41,2.7c1.31,0.18,2.17-0.69,2.3-2.01
			C77.25-56.49,76.55-57.31,75.26-57.63z"/>
		<path class="st1" d="M74.81-154.16c1.3,0.17,2.18-0.68,2.33-2.01c0.14-1.33-0.58-2.14-2.13-2.54c-0.89,0.09-1.53,0.67-1.59,1.83
			C73.35-155.69,73.31-154.36,74.81-154.16z"/>
		<path class="st1" d="M103.75-143.62c-1.24,0.15-1.4,1.26-1.36,2.28c0.04,0.99,0.11,2.17,1.54,1.94c1.18-0.19,2.2-0.79,2.2-2.31
			C105.88-142.97,105.09-143.79,103.75-143.62z"/>
		<path class="st1" d="M103.7-129.68c-1.32,0.08-2.2,0.94-2.12,2.23c0.1,1.58,1.43,2,2.75,2.21c1.4-0.3,1.99-1.2,1.78-2.5
			C105.91-129.04,105.01-129.76,103.7-129.68z"/>
		<path class="st1" d="M103.92-154.34c1.7,0.05,1.87-1.5,2.2-2.64c-0.01-1.4-0.82-1.81-1.93-1.78c-1.5,0.04-2.6,0.77-2.61,2.33
			C101.57-155.05,102.79-154.38,103.92-154.34z"/>
		<path class="st1" d="M94.5-105.35c0.13,1.04,0.61,2.04,1.73,2.02c1.68-0.04,2.68-1.23,2.83-2.8c0.15-1.6-1.2-1.66-2.29-1.72
			C95.08-107.79,94.29-106.98,94.5-105.35z"/>
		<path class="st1" d="M96.86-147.08c1.29,0.03,2.09-0.8,2.3-2.15c-0.18-1.6-1.35-2.16-2.72-2.26c-1.14-0.08-1.8,0.77-1.88,1.85
			C94.44-148.05,95.33-147.11,96.86-147.08z"/>
		<path class="st1" d="M89.57-129.78c-1.59-0.09-2.47,0.81-2.59,2.28c-0.1,1.22,1.81,2.61,3.14,2.41c1.31-0.19,1.93-1.06,2.06-2.33
			C91.97-128.94,91.05-129.7,89.57-129.78z"/>
		<path class="st1" d="M96.84-122.68c-1.27-0.04-2.14,0.75-2.27,2.06c-0.13,1.3,0.53,2.23,1.81,2.47c1.55,0.3,2.42-0.54,2.78-1.96
			C99.16-121.71,98.35-122.64,96.84-122.68z"/>
		<path class="st1" d="M73.46-127.3c0.16,1.07,0.65,1.97,1.93,1.7c1.03-0.22,1.81-0.82,1.74-2.16c-0.28-1.21-1.05-2.04-2.41-1.85
			C73.48-129.43,73.31-128.35,73.46-127.3z"/>
		<path class="st1" d="M68.1-107.68c-1.11-0.16-2.05,0.35-2.28,1.42c-0.31,1.45,0.74,2.07,1.99,2.25c1.05,0.16,1.98-0.07,2.34-1.43
			C70.04-106.61,69.44-107.5,68.1-107.68z"/>
		<path class="st1" d="M68.2-132.35c1.41-0.21,1.56-1.49,1.89-2.48c0.09-1.34-0.69-2.03-2.24-2c-1.02,0.02-2.04,0.18-2.28,1.41
			C65.34-134.24,67.07-132.18,68.2-132.35z"/>
		<path class="st1" d="M67.74-146.62c1.49,0.11,2.15-1.25,2.44-2.62c-0.29-1.62-1.44-2.22-2.84-2.24c-1.18-0.02-1.78,0.91-1.79,1.98
			C65.53-148.04,66.31-146.72,67.74-146.62z"/>
		<path class="st1" d="M62.95-112.96c-0.31-1.38-1.28-1.83-2.52-1.82c-1.44,0-2.06,0.86-1.91,2.22c0.13,1.18,1,1.63,2.08,1.56
			C61.83-111.09,62.81-111.55,62.95-112.96z"/>
		<path class="st1" d="M58.56-98.62c-0.15,1.33,0.54,2.26,1.86,2.44c1.63,0.22,1.81-1.01,1.9-2.15c-0.03-1.1-0.19-2.18-1.42-2.29
			C59.58-100.75,58.7-99.94,58.56-98.62z"/>
		<path class="st1" d="M67.84-118.08c1.5-0.05,2.45-0.98,2.28-2.53c-0.17-1.52-1.21-2.29-2.74-2c-1.28,0.24-1.87,1.16-1.83,2.5
			C65.77-118.85,66.57-118.04,67.84-118.08z"/>
		<path class="st1" d="M60.41-154.24c1.18-0.22,2.3-0.55,2.64-1.86c0.3-1.15-1.43-2.6-2.99-2.56c-0.98,0.03-1.51,0.62-1.58,1.52
			C58.36-155.69,58.78-154.55,60.41-154.24z"/>
		<path class="st1" d="M110.97-103.16c1.59-0.04,2.19-1.16,2.27-2.57c-0.03-1.17-0.54-1.93-1.72-1.99
			c-1.77-0.08-2.18,1.07-2.13,2.54C109.44-104.15,109.73-103.13,110.97-103.16z"/>
		<path class="st1" d="M67.84-64.7c-1.27-0.04-2.16,0.77-2.26,2.07c-0.13,1.56,0.77,2.49,2.27,2.54c1.27,0.04,2.07-0.77,2.3-2.07
			C70.16-63.71,69.34-64.65,67.84-64.7z"/>
		<path class="st1" d="M68.1-93.65c-1.57-0.14-2.49,0.76-2.54,2.26c-0.04,1.26,0.72,2.17,2.04,2.29c1.57,0.14,2.35-0.79,2.59-2.25
			C70.04-92.63,69.42-93.54,68.1-93.65z"/>
		<path class="st1" d="M75.37-139.34c1.37-0.61,1.81-1.82,1.68-3.19c-0.09-0.96-0.93-1.29-1.84-1.22c-1.54,0.12-1.9,1.14-1.73,2.44
			C73.62-140.28,74.07-139.42,75.37-139.34z"/>
		<path class="st1" d="M74.7-111.09c1.33,0.07,2.14-0.66,2.37-1.82c0.1-1.16-0.49-1.75-1.37-1.85c-1.4-0.15-2.77,0.16-2.92,1.86
			C72.68-111.74,73.63-111.15,74.7-111.09z"/>
		<path class="st1" d="M65.64-48.59c-0.34,1.1,1.17,3.15,2.38,3.27c1.51-0.13,1.37-1.54,1.73-2.51c0.43-1.15-0.11-1.89-1.32-1.98
			C67.33-49.9,66.08-50.03,65.64-48.59z"/>
		<path class="st1" d="M67.82-74.98c1.53-0.04,2.18-0.5,2.29-1.43c0.17-1.39-1.45-2.62-3.08-2.35c-0.89,0.15-1.55,0.66-1.42,1.65
			C65.82-75.51,66.95-75,67.82-74.98z"/>
		<path class="st1" d="M118.37-86.46c-1.44,0-1.9,1.18-1.92,2.43c-0.02,1.19,0.13,2.55,1.72,2.45c1.33-0.09,2.56-0.72,2.87-2.55
			C120.52-85.19,119.91-86.46,118.37-86.46z"/>
		<path class="st1" d="M38.83-64.62c-1.5,0.21-1.52,1.5-1.42,2.69c0.09,1.1,0.57,1.94,1.83,1.76c1.33-0.19,1.92-1.11,1.93-2.7
			C40.84-63.8,40.18-64.8,38.83-64.62z"/>
		<path class="st1" d="M41.06-47.82c0.25-1.19-0.4-1.85-1.68-1.95c-1.1-0.01-1.84,0.5-1.92,1.71c-0.09,1.25,0.24,2.52,1.61,2.64
			C40.51-45.3,40.83-46.72,41.06-47.82z"/>
		<path class="st1" d="M36.57-105.38c0.03,1.18,0.96,1.64,1.99,1.85c1.33-0.08,1.64-1.03,1.7-2.06c0.06-1.07-0.27-2.08-1.57-2.05
			C37.33-107.61,36.54-106.73,36.57-105.38z"/>
		<path class="st1" d="M44.4-69.19c0.04,1.04,0.34,2.05,1.57,2.03c1.59-0.04,2.17-1.17,2.26-2.58c-0.03-1.17-0.53-1.94-1.71-1.99
			C44.77-71.8,44.35-70.65,44.4-69.19z"/>
		<path class="st1" d="M38.9-136.84c-1.27,0-2.36,0.35-2.41,1.88c-0.06,1.49,0.47,2.79,2.17,2.65c1.35-0.11,2.52-0.88,2.57-2.55
			C41.17-136.35,40.21-136.83,38.9-136.84z"/>
		<path class="st1" d="M38.83-122.61c-1.5,0.21-1.52,1.5-1.42,2.69c0.09,1.09,0.57,1.94,1.82,1.76c1.33-0.19,1.92-1.11,1.93-2.69
			C40.83-121.79,40.18-122.8,38.83-122.61z"/>
		<path class="st1" d="M46.04-81.56c1.48-0.02,2.32-1.08,2.2-2.63c-0.12-1.47-0.89-2.39-2.46-2.53c-1.46,0.25-2.4,1.06-2.21,2.62
			C43.74-82.73,44.57-81.54,46.04-81.56z"/>
		<path class="st1" d="M38.87-6.64c-1.28-0.05-2.18,0.67-2.25,2.02c-0.06,1.25,0.81,1.65,1.91,1.59c1.18-0.07,1.69-0.79,1.72-2.62
			C40.26-5.92,39.76-6.6,38.87-6.64z"/>
		<path class="st1" d="M40.95-91.51c0.2-1.13-0.51-1.94-1.62-2.09c-1.63-0.23-1.93,0.94-1.95,2.2c-0.02,1.03,0.16,2.01,1.56,2.3
			C40.19-89.31,40.74-90.36,40.95-91.51z"/>
		<path class="st1" d="M32.21-13.82c-1.78-0.13-2.84,0.56-2.81,2.46c0.02,1.26,0.42,2.28,1.9,2.33c1.76,0.06,2.7-0.87,2.93-2.45
			C34.26-12.98,33.6-13.71,32.21-13.82z"/>
		<path class="st1" d="M39.2-20.76c-1.21,0.05-1.77,0.81-1.75,1.94c0.02,1.23,0.38,2.51,1.85,2.38c1.35-0.12,1.54-1.51,1.81-2.57
			C41.11-20.34,40.35-20.81,39.2-20.76z"/>
		<path class="st1" d="M46.03-38.97c1.35-0.01,2.22-0.56,2.15-2.04c-0.05-1.19-0.77-1.76-1.91-1.75c-1.38,0.01-2.17,0.85-2.24,2.12
			C43.95-39.37,45.02-39.12,46.03-38.97z"/>
		<path class="st1" d="M39.67-35.76c-1.57-0.27-3.14,0.85-3.13,2.29c0.01,1.29,0.71,2.11,1.91,2.35c1.36,0.1,2.66-1.42,2.67-3
			C41.12-35.1,40.55-35.6,39.67-35.76z"/>
		<path class="st1" d="M39.21-74.42c1.57-0.24,1.9-1.71,1.85-3.04c-0.03-0.93-0.85-1.32-1.96-1.29c-1.33,0.08-1.8,1.03-1.65,2.35
			C37.58-75.37,38.05-74.25,39.21-74.42z"/>
		<path class="st1" d="M118.05-129.74c-1.22,0.07-1.66,1.06-1.65,2.35c0.01,1.28,0.4,2.33,1.95,2.33c1.55,0,1.94-1.06,1.95-2.34
			C120.3-128.67,119.89-129.69,118.05-129.74z"/>
		<path class="st1" d="M45.83-13.79c-0.86,0.2-2.07,0.5-2.08,1.92c-0.01,1.37,0.62,2.69,2.17,2.74c1.54,0.05,2.25-1.11,2.3-2.58
			C48.26-13.11,47.5-13.78,45.83-13.79z"/>
		<path class="st1" d="M118.56-154.06c1.53-0.14,1.74-1.3,1.73-2.55c-0.08-1.37-0.69-2.24-2.16-2.11c-1.53,0.14-1.76,1.29-1.72,2.55
			C116.46-154.8,117.09-153.92,118.56-154.06z"/>
		<path class="st1" d="M111.05-118.15c1.37-0.05,2.09-0.98,2.09-2.26c-0.01-1.29-0.78-2.1-2.24-2.26c-1.38,0.26-1.57,1.34-1.5,2.55
			C109.46-119.07,109.77-118.1,111.05-118.15z"/>
		<path class="st1" d="M110.83-132.12c1.31,0.08,2.2-0.71,2.31-2.03c0.13-1.58-0.81-2.38-2.31-2.58c-1.31,0.18-2.28,0.82-2.08,2.21
			C108.91-133.4,109.45-132.21,110.83-132.12z"/>
		<path class="st1" d="M118.18-110.32c1.42,0.19,1.87-1.02,2.07-2.18c0.02-1.4-0.49-2.29-1.97-2.28c-1.24,0.01-2.42,0.41-2.5,1.8
			C115.71-111.49,116.82-110.5,118.18-110.32z"/>
		<path class="st1" d="M111.38-146.37c1.96-0.11,1.95-1.9,1.89-3.41c-0.06-1.41-0.88-2.05-2.34-2.01c-1.38,0.22-2.5,0.94-2.35,2.53
			C108.72-147.65,109.75-146.28,111.38-146.37z"/>
		<path class="st1" d="M111.37-60.03c1.16-0.02,1.77-0.65,1.88-1.91c-0.01-1.34-0.54-2.47-2.08-2.71c-1.28-0.2-2.25,0.37-2.43,1.75
			C108.56-61.47,109.94-60,111.37-60.03z"/>
		<path class="st1" d="M118.44-139.33c1.39-0.07,1.79-1.25,1.79-2.5c0-1.47-0.9-1.99-2.47-1.97c-0.92,0.25-2.19,0.64-1.98,2.08
			C115.97-140.35,116.95-139.25,118.44-139.33z"/>
		<path class="st1" d="M46.01-57.61c-1.24-0.05-1.57,0.94-1.61,1.98c-0.05,1.45,0.32,2.63,2.09,2.57c1.18-0.04,1.7-0.78,1.76-2.22
			C48.11-56.36,47.61-57.54,46.01-57.61z"/>
		<path class="st1" d="M118.9-100.66c-1.21-0.23-3.25,1.49-3.08,2.62c0.21,1.41,1.49,1.56,2.54,1.91c1.64,0.06,1.93-1.02,1.95-2.26
			C120.32-99.41,120.12-100.43,118.9-100.66z"/>
		<path class="st1" d="M125.51-146.99c1.44-0.09,2.6-0.75,2.59-2.29c-0.01-1.59-1.34-2.18-2.7-2.2c-1.4-0.01-1.88,1.11-1.94,2.33
			C123.39-147.78,124.07-147.01,125.51-146.99z"/>
		<path class="st1" d="M45.93-28.61c-1.23-0.01-1.51,1.03-1.54,2.07c-0.04,1.48,0.43,2.61,2.18,2.5c1.17-0.07,1.66-0.86,1.67-2.05
			C48.14-27.49,47.51-28.6,45.93-28.61z"/>
		<path class="st1" d="M125.7-136.79c-1.4-0.02-2.24,0.55-2.23,1.99c0.01,1.23,0.41,2.38,1.78,2.49c1.38,0.11,2.68-0.52,2.84-2.04
			C128.25-135.93,127.08-136.59,125.7-136.79z"/>
		<path class="st1" d="M25.08-122.67c-1.74-0.23-3.67,1.22-3.48,2.61c0.19,1.35,1.16,1.96,2.4,2.06c1.67,0.13,2.88-0.52,3.18-2.32
			C27.05-121.63,26.42-122.49,25.08-122.67z"/>
	</g>
</pattern>
<rect class="st2" width="1920" height="1080"/>
<pattern  id="SVGID_1_" xlink:href="#New_Pattern_3" patternTransform="matrix(1 0 0 1 66.0078 83.0928)">
</pattern>
<rect class="st3" width="1920" height="1080"/>
</svg>
